<svg width="1440" height="1024" viewBox="0 0 1440 1024" fill="none" xmlns="http://www.w3.org/2000/svg">
<g clip-path="url(#clip0_3738_16400)">
<path d="M4.21693 970.048C5.73103 969.348 7.59454 969.748 8.52629 971.048C9.34157 972.348 8.8757 973.949 7.3616 974.749C5.8475 975.449 3.98399 975.049 3.05224 973.749C2.23695 972.448 2.70283 970.748 4.21693 970.048Z" fill="#DEB341"/>
<path d="M10.6227 943.043C12.1368 942.343 14.0003 942.743 14.9321 944.043C15.8638 945.343 15.2815 946.944 13.7674 947.744C12.2533 948.544 10.3897 948.044 9.45799 946.744C8.52624 945.443 9.10859 943.843 10.6227 943.043Z" fill="#DEB341"/>
<path d="M8.64251 958.346C10.1566 957.646 12.0201 958.046 12.9519 959.346C13.8836 960.646 13.3013 962.247 11.7872 963.047C10.2731 963.747 8.40957 963.347 7.47781 962.046C6.54606 960.646 7.01194 959.046 8.64251 958.346Z" fill="#DEB341"/>
<path d="M2.70276 988.052C4.21686 987.352 6.08037 987.752 7.01213 989.052C7.82741 990.352 7.36154 991.953 5.84744 992.753C4.33334 993.453 2.46983 993.053 1.53807 991.753C0.606319 990.452 1.18867 988.752 2.70276 988.052Z" fill="#DEB341"/>
<path d="M13.5343 980.05C15.0484 979.35 16.9119 979.75 17.8437 981.05C18.659 982.35 18.1931 983.951 16.679 984.751C15.1649 985.551 13.3014 985.051 12.3696 983.751C11.4379 982.45 12.0202 980.75 13.5343 980.05Z" fill="#DEB341"/>
<path d="M0.256963 1001.65C1.77106 1000.95 3.63457 1001.35 4.56632 1002.65C5.49807 1003.95 4.91573 1005.56 3.40163 1006.36C1.88753 1007.16 0.024025 1006.66 -0.907728 1005.36C-1.83948 1004.05 -1.25714 1002.35 0.256963 1001.65Z" fill="#DEB341"/>
<path d="M17.611 996.053C19.1251 995.353 20.9886 995.753 21.9203 997.053C22.7356 998.353 22.2697 999.954 20.7556 1000.75C19.2415 1001.55 17.378 1001.05 16.4463 999.754C15.5145 998.453 16.0969 996.853 17.611 996.053Z" fill="#DEB341"/>
<path d="M10.2731 1012.06C11.7872 1011.36 13.6507 1011.76 14.5824 1013.06C15.3977 1014.36 14.9318 1015.96 13.4177 1016.76C11.9036 1017.56 10.0401 1017.06 9.10838 1015.76C8.17663 1014.46 8.75898 1012.76 10.2731 1012.06Z" fill="#DEB341"/>
<path d="M-3.23718 1018.56C-1.72308 1017.86 0.140425 1018.26 1.07218 1019.56C2.00393 1020.86 1.42159 1022.46 -0.0925136 1023.26C-1.60661 1023.96 -3.47012 1023.56 -4.40187 1022.26C-5.33362 1020.96 -4.75128 1019.26 -3.23718 1018.56Z" fill="#DEB341"/>
<path d="M25.1813 1007.66C26.6954 1006.96 28.5589 1007.36 29.4907 1008.66C30.3059 1009.96 29.8401 1011.56 28.326 1012.36C26.8119 1013.06 24.9483 1012.66 24.0166 1011.36C23.0848 1010.06 23.6672 1008.46 25.1813 1007.66Z" fill="#DEB341"/>
<path d="M14.0001 1022.76C15.5142 1022.06 17.3777 1022.46 18.3095 1023.76C19.1248 1025.06 18.6589 1026.66 17.1448 1027.46C15.6307 1028.26 13.7672 1027.76 12.8354 1026.46C11.9037 1025.16 12.486 1023.46 14.0001 1022.76Z" fill="#DEB341"/>
<path d="M24.2496 1024.66C25.7637 1023.96 27.6272 1024.36 28.559 1025.66C29.3743 1026.96 28.9084 1028.56 27.3943 1029.36C25.8802 1030.06 24.0167 1029.66 23.0849 1028.36C22.1532 1027.06 22.7355 1025.36 24.2496 1024.66Z" fill="#DEB341"/>
<path d="M-1.14099 931.841C0.373113 931.141 2.23662 931.541 3.16837 932.841C3.98365 934.141 3.51778 935.742 2.00368 936.542C0.489578 937.242 -1.37392 936.842 -2.30568 935.542C-3.23743 934.241 -2.65508 932.541 -1.14099 931.841Z" fill="#DEB341"/>
<path d="M13.8839 1004.45C14.0003 1005.45 13.1851 1006.25 12.0204 1006.35C10.8557 1006.45 9.92392 1005.75 9.80745 1004.75C9.69098 1003.75 10.5063 1002.95 11.671 1002.85C12.8357 1002.75 13.7674 1003.45 13.8839 1004.45Z" fill="#DEB341"/>
<path d="M3.86727 765.91C3.98374 766.91 3.16846 767.71 2.00377 767.81C0.839075 767.91 -0.0926802 767.21 -0.209149 766.21C-0.325618 765.209 0.489664 764.409 1.65436 764.309C2.81905 764.209 3.7508 764.909 3.86727 765.91Z" fill="#DEB341"/>
<path d="M5.73104 952.945C5.84751 953.945 5.03223 954.745 3.86754 954.845C2.70284 954.945 1.77109 954.245 1.65462 953.245C1.53815 952.245 2.35344 951.445 3.51813 951.345C4.68283 951.345 5.61457 952.045 5.73104 952.945Z" fill="#DEB341"/>
<path d="M12.8355 933.741C12.952 934.741 12.1367 935.541 10.972 935.641C9.80733 935.741 8.87558 935.041 8.75911 934.041C8.64264 933.041 9.45792 932.24 10.6226 932.14C11.7873 932.04 12.7191 932.74 12.8355 933.741Z" fill="#DEB341"/>
<path d="M22.2696 833.222C22.3861 834.222 21.5708 835.022 20.4061 835.122C19.2414 835.222 18.3097 834.522 18.1932 833.522C18.0767 832.522 18.892 831.722 20.0567 831.622C21.2214 831.522 22.2696 832.222 22.2696 833.222Z" fill="#DEB341"/>
<path d="M21.8038 899.735C21.9203 900.735 21.105 901.535 19.9403 901.635C18.7756 901.735 17.8438 901.035 17.7274 900.035C17.6109 899.035 18.4262 898.234 19.5909 898.134C20.7556 898.034 21.6873 898.835 21.8038 899.735Z" fill="#DEB341"/>
<path d="M97.0428 1023.66C98.6734 1023.06 100.537 1023.76 101.119 1025.16C101.818 1026.56 101.003 1028.16 99.3722 1028.66C97.7416 1029.26 95.8781 1028.56 95.2958 1027.16C94.7134 1025.76 95.5287 1024.16 97.0428 1023.66Z" fill="#DEB341"/>
<path d="M49.2902 1022.06C50.9208 1021.46 52.7843 1022.16 53.3666 1023.56C54.0654 1024.96 53.2502 1026.56 51.6196 1027.06C49.989 1027.66 48.1255 1026.96 47.5432 1025.56C46.9608 1024.16 47.6596 1022.66 49.2902 1022.06Z" fill="#DEB341"/>
<path d="M63.8488 1014.36C65.4794 1013.76 67.3429 1014.46 67.9252 1015.86C68.624 1017.26 67.8087 1018.86 66.1782 1019.36C64.5476 1019.96 62.6841 1019.26 62.1018 1017.86C61.5194 1016.46 62.2182 1014.96 63.8488 1014.36Z" fill="#DEB341"/>
<path d="M73.5158 1005.75C75.1464 1005.15 77.0099 1005.85 77.5922 1007.26C78.291 1008.66 77.4757 1010.26 75.8452 1010.76C74.2146 1011.36 72.3511 1010.66 71.7688 1009.26C71.1864 1007.86 71.8852 1006.35 73.5158 1005.75Z" fill="#DEB341"/>
<path d="M81.3192 1016.06C82.9498 1015.46 84.8133 1016.16 85.3956 1017.56C86.0944 1018.96 85.2791 1020.56 83.6486 1021.06C82.018 1021.66 80.1545 1020.96 79.5722 1019.56C78.9898 1018.26 79.8051 1016.66 81.3192 1016.06Z" fill="#DEB341"/>
<path d="M50.4552 1008.56C52.0858 1007.96 53.9493 1008.66 54.5317 1010.06C55.114 1011.46 54.4152 1013.06 52.7846 1013.56C51.1541 1014.16 49.2905 1013.46 48.7082 1012.06C48.1259 1010.76 48.8247 1009.16 50.4552 1008.56Z" fill="#DEB341"/>
<path d="M58.841 1000.45C60.4716 999.854 62.3351 1000.55 62.9174 1001.95C63.6162 1003.35 62.8009 1004.95 61.1704 1005.45C59.5398 1006.06 57.6763 1005.35 57.0939 1003.95C56.5116 1002.55 57.2104 1001.05 58.841 1000.45Z" fill="#DEB341"/>
<path d="M35.3141 1008.66C36.9447 1008.06 38.8082 1008.76 39.3905 1010.16C40.0894 1011.56 39.2741 1013.16 37.6435 1013.66C36.0129 1014.26 34.1494 1013.56 33.5671 1012.16C32.9847 1010.76 33.6836 1009.26 35.3141 1008.66Z" fill="#DEB341"/>
<path d="M47.776 996.453C49.4066 995.853 51.2701 996.553 51.8525 997.953C52.5513 999.354 51.736 1000.95 50.1054 1001.45C48.4749 1002.05 46.6113 1001.35 46.029 999.954C45.4467 998.653 46.1455 997.053 47.776 996.453Z" fill="#DEB341"/>
<path d="M25.4752 929.004C26.3217 927.702 25.7786 926.056 24.262 925.33C22.7455 924.603 20.8299 925.069 19.9834 926.371C19.1369 927.674 19.6801 929.319 21.1966 930.046C22.7132 930.773 24.6288 930.306 25.4752 929.004Z" fill="#DEB341"/>
<path d="M32.7518 922.438C34.3824 922.038 36.1294 922.838 36.5953 924.339C37.0612 925.739 36.1294 927.239 34.3824 927.639C32.7518 928.039 31.0048 927.239 30.5389 925.739C30.073 924.339 31.1212 922.838 32.7518 922.438Z" fill="#DEB341"/>
<path d="M45.3303 929.44C46.9608 929.04 48.7079 929.84 49.1738 931.341C49.6396 932.741 48.7079 934.241 46.9608 934.641C45.3303 935.041 43.5832 934.241 43.1174 932.741C42.6515 931.341 43.5832 929.84 45.3303 929.44Z" fill="#DEB341"/>
<path d="M65.7746 926.702C66.6211 925.4 66.0779 923.755 64.5613 923.028C63.0448 922.301 61.1292 922.767 60.2827 924.07C59.4362 925.372 59.9794 927.017 61.4959 927.744C63.0125 928.471 64.9281 928.004 65.7746 926.702Z" fill="#DEB341"/>
<path d="M43.5834 919.839C45.2139 919.439 46.961 920.239 47.4268 921.739C47.8927 923.139 46.961 924.64 45.2139 925.04C43.5834 925.44 41.8363 924.64 41.3704 923.139C40.9046 921.739 41.9528 920.239 43.5834 919.839Z" fill="#DEB341"/>
<path d="M56.0456 895.434C57.6762 895.033 59.4232 895.834 59.8891 897.334C60.355 898.734 59.4232 900.234 57.6762 900.635C56.0456 901.035 54.2986 900.234 53.8327 898.734C53.3668 897.334 54.2986 895.834 56.0456 895.434Z" fill="#DEB341"/>
<path d="M52.0857 910.236C53.7163 909.836 55.4633 910.636 55.9292 912.137C56.3951 913.537 55.4633 915.037 53.7163 915.437C52.0857 915.837 50.3387 915.037 49.8728 913.537C49.5234 912.137 50.4552 910.636 52.0857 910.236Z" fill="#DEB341"/>
<path d="M23.6674 940.242C25.2979 939.842 27.0449 940.642 27.5108 942.142C27.9767 943.543 27.045 945.043 25.2979 945.443C23.6673 945.843 21.9203 945.043 21.4544 943.543C20.9886 942.142 22.0368 940.642 23.6674 940.242Z" fill="#DEB341"/>
<path d="M26.4626 949.844C28.0932 949.444 29.8402 950.244 30.3061 951.744C30.772 953.144 29.8402 954.645 28.0932 955.045C26.4626 955.445 24.7156 954.645 24.2497 953.144C23.7838 951.744 24.7156 950.244 26.4626 949.844Z" fill="#DEB341"/>
<path d="M38.86 943.858C39.7065 942.556 39.1633 940.911 37.6468 940.184C36.1303 939.457 34.2147 939.924 33.3682 941.226C32.5217 942.528 33.0648 944.173 34.5814 944.9C36.0979 945.627 38.0135 945.161 38.86 943.858Z" fill="#DEB341"/>
<path d="M59.4152 943.914C60.2617 942.612 59.7185 940.967 58.202 940.24C56.6855 939.513 54.7698 939.979 53.9233 941.282C53.0768 942.584 53.62 944.229 55.1366 944.956C56.6531 945.683 58.5687 945.216 59.4152 943.914Z" fill="#DEB341"/>
<path d="M68.5077 934.341C70.1383 933.941 71.8853 934.741 72.3512 936.241C72.817 937.641 71.8853 939.142 70.1382 939.542C68.5077 939.942 66.7606 939.142 66.2948 937.641C65.8289 936.241 66.8771 934.741 68.5077 934.341Z" fill="#DEB341"/>
<path d="M38.3898 960.304C39.2363 959.001 38.6931 957.356 37.1766 956.629C35.66 955.902 33.7444 956.369 32.8979 957.671C32.0515 958.974 32.5946 960.619 34.1112 961.346C35.6277 962.072 37.5433 961.606 38.3898 960.304Z" fill="#DEB341"/>
<path d="M53.3117 956.676C54.1582 955.373 53.615 953.728 52.0984 953.001C50.5819 952.274 48.6663 952.741 47.8198 954.043C46.9733 955.346 47.5165 956.991 49.033 957.718C50.5496 958.445 52.4652 957.978 53.3117 956.676Z" fill="#DEB341"/>
<path d="M71.7526 954.716C72.5991 953.413 72.0559 951.768 70.5394 951.041C69.0228 950.315 67.1072 950.781 66.2607 952.083C65.4142 953.386 65.9574 955.031 67.4739 955.758C68.9905 956.485 70.9061 956.018 71.7526 954.716Z" fill="#DEB341"/>
<path d="M7.24492 918.438C8.87549 918.038 10.6225 918.838 11.0884 920.339C11.5543 921.739 10.6225 923.239 8.87548 923.639C7.24491 924.039 5.49788 923.239 5.032 921.739C4.6826 920.339 5.61435 918.838 7.24492 918.438Z" fill="#DEB341"/>
<path d="M14.2091 910.881C15.0556 909.578 14.5124 907.933 12.9959 907.206C11.4794 906.48 9.56378 906.946 8.71729 908.248C7.8708 909.551 8.41396 911.196 9.93049 911.923C11.447 912.65 13.3626 912.183 14.2091 910.881Z" fill="#DEB341"/>
<path d="M30.84 908.062C31.6865 906.76 31.1433 905.115 29.6268 904.388C28.1102 903.661 26.1946 904.128 25.3481 905.43C24.5016 906.732 25.0448 908.377 26.5613 909.104C28.0779 909.831 29.9935 909.365 30.84 908.062Z" fill="#DEB341"/>
<path d="M24.6652 915.835C25.5117 914.533 24.9685 912.888 23.452 912.161C21.9354 911.434 20.0198 911.9 19.1733 913.202C18.3268 914.505 18.87 916.15 20.3865 916.877C21.9031 917.604 23.8187 917.137 24.6652 915.835Z" fill="#DEB341"/>
<path d="M2.87123 898.524C3.71773 897.222 3.17455 895.577 1.65802 894.85C0.141491 894.123 -1.77411 894.59 -2.62061 895.892C-3.4671 897.194 -2.92393 898.839 -1.4074 899.566C0.109132 900.293 2.02474 899.827 2.87123 898.524Z" fill="#DEB341"/>
<path d="M-2.0724 903.235C-0.441832 902.835 1.30521 903.635 1.77109 905.136C2.23696 906.536 1.30521 908.036 -0.44183 908.436C-2.0724 908.836 -3.81944 908.036 -4.28532 906.536C-4.75119 905.136 -3.70297 903.635 -2.0724 903.235Z" fill="#DEB341"/>
<path d="M18.3302 892.223C19.1767 890.92 18.6335 889.275 17.117 888.548C15.6005 887.821 13.6849 888.288 12.8384 889.59C11.9919 890.892 12.5351 892.538 14.0516 893.264C15.5681 893.991 17.4837 893.525 18.3302 892.223Z" fill="#DEB341"/>
<path d="M41.0212 897.034C42.6518 896.634 44.3988 897.434 44.8647 898.934C45.3306 900.335 44.3988 901.835 42.6517 902.235C41.0212 902.635 39.2742 901.835 38.8083 900.335C38.3424 898.934 39.2742 897.434 41.0212 897.034Z" fill="#DEB341"/>
<path d="M49.8729 879.831C51.5034 879.431 53.2504 880.231 53.7163 881.731C54.1822 883.132 53.2505 884.632 51.5034 885.032C49.8729 885.432 48.1258 884.632 47.6599 883.132C47.3105 881.731 48.2423 880.231 49.8729 879.831Z" fill="#DEB341"/>
<path d="M36.7028 916.697C37.5493 915.395 37.0061 913.75 35.4896 913.023C33.973 912.296 32.0574 912.762 31.2109 914.065C30.3644 915.367 30.9076 917.012 32.4241 917.739C33.9407 918.466 35.8563 918 36.7028 916.697Z" fill="#DEB341"/>
<path d="M6.16908 877.677C7.01557 876.374 6.4724 874.729 4.95587 874.002C3.43934 873.275 1.52373 873.742 0.67724 875.044C-0.169253 876.347 0.37392 877.992 1.89045 878.719C3.40698 879.446 5.32259 878.979 6.16908 877.677Z" fill="#DEB341"/>
<path d="M2.93541 883.731C4.56598 883.331 6.31302 884.131 6.7789 885.632C7.24477 887.032 6.31301 888.532 4.56597 888.932C2.93541 889.332 1.18837 888.532 0.722497 887.032C0.256621 885.632 1.30484 884.131 2.93541 883.731Z" fill="#DEB341"/>
<path d="M22.6189 881.431C24.2495 881.031 25.9965 881.831 26.4624 883.331C26.9283 884.731 25.9966 886.232 24.2495 886.632C22.6189 887.032 20.8719 886.232 20.406 884.731C20.0566 883.331 20.9884 881.831 22.6189 881.431Z" fill="#DEB341"/>
<path d="M36.7145 890.35C37.561 889.047 37.0178 887.402 35.5013 886.675C33.9848 885.948 32.0691 886.415 31.2227 887.717C30.3762 889.019 30.9193 890.664 32.4359 891.391C33.9524 892.118 35.868 891.652 36.7145 890.35Z" fill="#DEB341"/>
<path d="M21.6281 871.375C22.4746 870.073 21.9314 868.428 20.4149 867.701C18.8983 866.974 16.9827 867.44 16.1362 868.743C15.2897 870.045 15.8329 871.69 17.3494 872.417C18.866 873.144 20.7816 872.677 21.6281 871.375Z" fill="#DEB341"/>
<path d="M32.3214 863.715C33.1679 862.412 32.6247 860.767 31.1082 860.04C29.5917 859.314 27.6761 859.78 26.8296 861.082C25.9831 862.385 26.5263 864.03 28.0428 864.757C29.5593 865.484 31.4749 865.017 32.3214 863.715Z" fill="#DEB341"/>
<path d="M38.8932 874.714C39.7397 873.411 39.1965 871.766 37.68 871.04C36.1635 870.313 34.2479 870.779 33.4014 872.081C32.5549 873.384 33.098 875.029 34.6146 875.756C36.1311 876.483 38.0467 876.016 38.8932 874.714Z" fill="#DEB341"/>
<path d="M5.49785 860.427C7.12842 860.027 8.87546 860.827 9.34133 862.327C9.80721 863.727 8.87545 865.228 7.12841 865.628C5.49784 866.028 3.75081 865.228 3.28493 863.727C2.93553 862.327 3.86728 860.827 5.49785 860.427Z" fill="#DEB341"/>
<path d="M14.8153 853.226C16.4459 852.825 18.1929 853.626 18.6588 855.126C19.1246 856.526 18.1929 858.026 16.4458 858.426C14.8153 858.827 13.0683 858.026 12.6024 856.526C12.1365 855.126 13.1847 853.626 14.8153 853.226Z" fill="#DEB341"/>
<path d="M4.44991 848.225C6.08048 847.824 7.82751 848.625 8.29338 850.125C8.75926 851.525 7.82751 853.025 6.08048 853.426C4.44991 853.826 2.70287 853.025 2.23699 851.525C1.77112 850.125 2.70287 848.625 4.44991 848.225Z" fill="#DEB341"/>
<path d="M12.6457 839.638C13.4921 838.335 12.949 836.69 11.4324 835.963C9.91591 835.236 8.0003 835.703 7.1538 837.005C6.30731 838.308 6.85049 839.953 8.36702 840.68C9.88355 841.406 11.7992 840.94 12.6457 839.638Z" fill="#DEB341"/>
<path d="M6.84139 796.215C8.5778 796.185 9.95754 794.952 9.92313 793.461C9.88872 791.97 8.4532 790.785 6.7168 790.815C4.98039 790.844 3.60065 792.077 3.63505 793.568C3.66946 795.059 5.10499 796.244 6.84139 796.215Z" fill="#DEB341"/>
<path d="M17.3224 792.512C19.0588 792.483 20.4385 791.25 20.4041 789.759C20.3697 788.268 18.9342 787.083 17.1978 787.113C15.4614 787.142 14.0816 788.375 14.116 789.866C14.1504 791.357 15.586 792.542 17.3224 792.512Z" fill="#DEB341"/>
<path d="M29.3742 793.114C31.0048 792.514 32.8683 793.214 33.4506 794.614C34.033 796.015 33.3341 797.615 31.7036 798.115C30.073 798.715 28.2095 798.015 27.6271 796.615C27.0448 795.215 27.7436 793.714 29.3742 793.114Z" fill="#DEB341"/>
<path d="M45.3302 785.013C46.9608 784.413 48.8243 785.113 49.4067 786.513C49.989 787.913 49.2902 789.513 47.6596 790.014C46.0291 790.614 44.1655 789.914 43.5832 788.513C43.0009 787.113 43.6997 785.513 45.3302 785.013Z" fill="#DEB341"/>
<path d="M26.4626 783.713C28.0931 783.113 29.9566 783.813 30.539 785.213C31.2378 786.613 30.4225 788.214 28.7919 788.714C27.1614 789.314 25.2979 788.614 24.7155 787.214C24.1332 785.813 24.832 784.313 26.4626 783.713Z" fill="#DEB341"/>
<path d="M40.0204 761.052C40.1951 759.568 38.936 758.244 37.2081 758.094C35.4802 757.943 33.9378 759.025 33.7631 760.509C33.5884 761.992 34.8475 763.317 36.5754 763.467C38.3033 763.617 39.8457 762.536 40.0204 761.052Z" fill="#DEB341"/>
<path d="M33.6833 773.31C35.3138 772.71 37.1773 773.411 37.7597 774.811C38.4585 776.211 37.6432 777.811 36.0127 778.311C34.3821 778.912 32.5186 778.211 31.9362 776.811C31.3539 775.511 32.0527 773.911 33.6833 773.31Z" fill="#DEB341"/>
<path d="M10.5675 811.116C12.3039 811.086 13.6836 809.854 13.6492 808.363C13.6148 806.871 12.1793 805.686 10.4429 805.716C8.70646 805.746 7.32672 806.978 7.36113 808.47C7.39553 809.961 8.83105 811.146 10.5675 811.116Z" fill="#DEB341"/>
<path d="M20.7555 804.517C22.3861 803.916 24.2496 804.617 24.832 806.017C25.4143 807.417 24.7155 809.017 23.0849 809.517C21.4543 810.018 19.5908 809.417 19.0085 808.017C18.4262 806.617 19.125 805.117 20.7555 804.517Z" fill="#DEB341"/>
<path d="M41.1374 802.616C42.7679 802.016 44.6314 802.716 45.2138 804.116C45.7961 805.517 45.0973 807.117 43.4668 807.617C41.8362 808.217 39.9727 807.517 39.3903 806.117C38.808 804.717 39.5068 803.216 41.1374 802.616Z" fill="#DEB341"/>
<path d="M53.134 795.814C54.7645 795.214 56.628 795.914 57.2104 797.315C57.9092 798.715 57.0939 800.315 55.4633 800.815C53.8328 801.415 51.9693 800.715 51.3869 799.315C50.8046 797.915 51.5034 796.415 53.134 795.814Z" fill="#DEB341"/>
<path d="M32.7518 846.024C34.3824 845.424 36.2459 846.124 36.8282 847.525C37.527 848.925 36.7118 850.525 35.0812 851.025C33.4506 851.625 31.5871 850.925 31.0048 849.525C30.4224 848.125 31.2377 846.524 32.7518 846.024Z" fill="#DEB341"/>
<path d="M60.9369 857.404C61.1116 855.921 59.8525 854.596 58.1246 854.446C56.3967 854.296 54.8544 855.377 54.6796 856.861C54.5049 858.345 55.764 859.669 57.4919 859.82C59.2198 859.97 60.7622 858.888 60.9369 857.404Z" fill="#DEB341"/>
<path d="M62.4514 866.929C64.082 866.329 65.9455 867.029 66.5278 868.429C67.2267 869.829 66.4114 871.43 64.7808 871.93C63.1502 872.53 61.2867 871.83 60.7044 870.429C60.0056 869.029 60.8208 867.529 62.4514 866.929Z" fill="#DEB341"/>
<path d="M49.8727 866.128C51.5033 865.528 53.3668 866.228 53.9491 867.628C54.648 869.028 53.8327 870.629 52.2021 871.129C50.5715 871.729 48.708 871.029 48.1257 869.629C47.5433 868.228 48.2422 866.628 49.8727 866.128Z" fill="#DEB341"/>
<path d="M38.808 855.626C40.4385 855.026 42.302 855.726 42.8844 857.126C43.5832 858.526 42.7679 860.127 41.1373 860.627C39.5068 861.227 37.6433 860.527 37.0609 859.127C36.4786 857.726 37.2939 856.126 38.808 855.626Z" fill="#DEB341"/>
<path d="M22.3861 820.92C24.0167 820.32 25.8802 821.02 26.4625 822.42C27.0449 823.82 26.346 825.421 24.7155 825.921C23.0849 826.521 21.2214 825.821 20.639 824.421C20.0567 823.02 20.872 821.42 22.3861 820.92Z" fill="#DEB341"/>
<path d="M36.8284 815.919C38.4589 815.319 40.3224 816.019 40.9048 817.419C41.6036 818.819 40.7883 820.42 39.1578 820.92C37.5272 821.52 35.6637 820.82 35.0813 819.42C34.3825 818.019 35.1978 816.419 36.8284 815.919Z" fill="#DEB341"/>
<path d="M54.7643 812.218C56.3949 811.618 58.2584 812.318 58.8407 813.718C59.5396 815.118 58.7243 816.719 57.0937 817.219C55.4631 817.819 53.5996 817.119 53.0173 815.718C52.4349 814.318 53.1338 812.818 54.7643 812.218Z" fill="#DEB341"/>
<path d="M45.214 827.321C46.8446 826.721 48.7081 827.421 49.2904 828.822C49.9893 830.222 49.174 831.822 47.5434 832.322C45.9128 832.922 44.0493 832.222 43.467 830.822C42.8846 829.422 43.5835 827.821 45.214 827.321Z" fill="#DEB341"/>
<path d="M30.8884 832.322C32.519 831.722 34.3825 832.422 34.9648 833.822C35.6637 835.223 34.8484 836.823 33.2178 837.323C31.5872 837.923 29.7237 837.223 29.1414 835.823C28.4426 834.423 29.2579 832.822 30.8884 832.322Z" fill="#DEB341"/>
<path d="M61.8136 829.721C63.55 829.692 64.9297 828.459 64.8953 826.968C64.8609 825.477 63.4254 824.292 61.689 824.322C59.9526 824.351 58.5728 825.584 58.6072 827.075C58.6416 828.566 60.0771 829.751 61.8136 829.721Z" fill="#DEB341"/>
<path d="M51.7318 841.033C51.9065 839.55 50.6474 838.225 48.9195 838.075C47.1916 837.925 45.6493 839.006 45.4746 840.49C45.2998 841.974 46.5589 843.298 48.2868 843.448C50.0147 843.598 51.5571 842.517 51.7318 841.033Z" fill="#DEB341"/>
<path d="M8.29321 769.71C9.92378 769.11 11.7873 769.81 12.3696 771.21C13.0684 772.61 12.2532 774.211 10.6226 774.711C8.99203 775.211 7.12852 774.611 6.54618 773.211C5.84736 771.81 6.66265 770.21 8.29321 769.71Z" fill="#DEB341"/>
<path d="M4.21694 783.213C5.95369 783.213 7.36161 782.003 7.36161 780.512C7.36161 779.021 5.95369 777.812 4.21694 777.812C2.48019 777.812 1.07227 779.021 1.07227 780.512C1.07227 782.003 2.48019 783.213 4.21694 783.213Z" fill="#DEB341"/>
<path d="M-2.65511 826.921C-1.02454 826.321 0.838963 827.021 1.42131 828.421C2.12012 829.821 1.30484 831.422 -0.325728 831.922C-1.9563 832.522 -3.8198 831.822 -4.40215 830.422C-4.98449 829.021 -4.28568 827.421 -2.65511 826.921Z" fill="#DEB341"/>
<path d="M-0.791342 815.118C0.839226 814.518 2.70273 815.218 3.28508 816.618C3.86742 818.019 3.16861 819.619 1.53804 820.119C-0.0925267 820.719 -1.95603 820.019 -2.53838 818.619C-3.12072 817.219 -2.42191 815.718 -0.791342 815.118Z" fill="#DEB341"/>
<path d="M11.4376 824.32C13.1744 824.32 14.5823 823.111 14.5823 821.619C14.5823 820.128 13.1744 818.919 11.4376 818.919C9.7009 818.919 8.29297 820.128 8.29297 821.619C8.29297 823.111 9.7009 824.32 11.4376 824.32Z" fill="#DEB341"/>
<path d="M23.3176 840.023C24.9482 839.423 26.8117 840.123 27.394 841.524C28.0929 842.924 27.2776 844.524 25.647 845.024C24.0164 845.624 22.1529 844.924 21.5706 843.524C20.8718 842.224 21.6871 840.623 23.3176 840.023Z" fill="#DEB341"/>
<path d="M57.3269 841.224C58.9575 840.623 60.821 841.324 61.4033 842.724C61.9857 844.124 61.2869 845.724 59.6563 846.225C58.0257 846.825 56.1622 846.125 55.5799 844.724C54.8811 843.424 55.6963 841.824 57.3269 841.224Z" fill="#DEB341"/>
<path d="M20.9884 761.309C22.619 760.708 24.4825 761.409 25.0649 762.809C25.6472 764.209 24.9484 765.809 23.3178 766.309C21.6873 766.91 19.8238 766.209 19.2414 764.809C18.6591 763.409 19.3579 761.909 20.9884 761.309Z" fill="#DEB341"/>
<path d="M27.6273 743.305C29.2579 742.705 31.1214 743.405 31.7037 744.805C32.2861 746.205 31.5872 747.805 29.9567 748.306C28.3261 748.906 26.4626 748.206 25.8803 746.805C25.2979 745.505 26.1132 743.905 27.6273 743.305Z" fill="#DEB341"/>
<path d="M15.0485 777.712C16.6791 777.112 18.5426 777.812 19.1249 779.212C19.8237 780.612 19.0085 782.213 17.3779 782.713C15.7473 783.313 13.8838 782.613 13.3015 781.213C12.7191 779.912 13.4179 778.312 15.0485 777.712Z" fill="#DEB341"/>
<path d="M0.256665 799.615C1.30489 800.816 0.839015 802.516 -0.558615 803.416C-1.95624 804.316 -3.93622 803.916 -4.98445 802.716C-6.03267 801.516 -5.5668 799.815 -4.16917 798.915C-2.65507 798.115 -0.675088 798.415 0.256665 799.615Z" fill="#DEB341"/>
<path d="M0.839113 747.506C2.46968 746.906 4.33319 747.606 4.91553 749.006C5.61435 750.406 4.79906 752.007 3.1685 752.507C1.53793 753.007 -0.325579 752.407 -0.907925 751.006C-1.60674 749.606 -0.791455 748.106 0.839113 747.506Z" fill="#DEB341"/>
<path d="M11.7873 751.507C13.4178 750.907 15.2813 751.607 15.8637 753.007C16.5625 754.407 15.7472 756.008 14.1167 756.508C12.4861 757.108 10.6226 756.408 10.0402 755.007C9.45789 753.607 10.1567 752.007 11.7873 751.507Z" fill="#DEB341"/>
<path d="M3.98374 725.502C5.61431 724.902 7.47782 725.602 8.06016 727.002C8.64251 728.402 7.94369 730.003 6.31313 730.503C4.68256 731.103 2.81905 730.403 2.23671 729.003C1.65436 727.602 2.46964 726.102 3.98374 725.502Z" fill="#DEB341"/>
<path d="M11.9037 735.804C13.5342 735.204 15.3977 735.904 15.9801 737.304C16.6789 738.704 15.8636 740.305 14.233 740.805C12.6025 741.405 10.739 740.705 10.1566 739.304C9.57428 737.904 10.3896 736.304 11.9037 735.804Z" fill="#DEB341"/>
<path d="M28.2092 994.053C29.8398 993.453 31.7033 994.153 32.2856 995.553C32.868 996.953 32.1692 998.554 30.5386 999.054C28.908 999.654 27.0445 998.954 26.4622 997.553C25.7634 996.153 26.5787 994.553 28.2092 994.053Z" fill="#DEB341"/>
<path d="M39.8563 989.952C41.4869 989.352 43.3504 990.052 43.9327 991.452C44.5151 992.853 43.8163 994.453 42.1857 994.953C40.5551 995.553 38.6916 994.853 38.1093 993.453C37.5269 992.052 38.3422 990.552 39.8563 989.952Z" fill="#DEB341"/>
<path d="M54.5315 982.25C56.1621 981.65 58.0256 982.35 58.6079 983.75C59.1903 985.15 58.4914 986.751 56.8609 987.251C55.2303 987.851 53.3668 987.151 52.7845 985.751C52.0856 984.35 52.9009 982.85 54.5315 982.25Z" fill="#DEB341"/>
<path d="M68.3597 976.491C68.5345 975.008 67.2754 973.683 65.5475 973.533C63.8196 973.383 62.2772 974.464 62.1025 975.948C61.9278 977.432 63.1869 978.756 64.9148 978.906C66.6427 979.056 68.185 977.975 68.3597 976.491Z" fill="#DEB341"/>
<path d="M41.1374 976.449C42.7679 975.849 44.6314 976.549 45.2138 977.949C45.7961 979.35 45.0973 980.95 43.4668 981.45C41.8362 982.05 39.9727 981.35 39.3903 979.95C38.808 978.55 39.5068 977.049 41.1374 976.449Z" fill="#DEB341"/>
<path d="M49.4069 968.348C51.0375 967.747 52.901 968.448 53.4833 969.848C54.1821 971.248 53.3669 972.848 51.7363 973.349C50.1057 973.949 48.2422 973.249 47.6599 971.848C47.0775 970.548 47.7763 968.948 49.4069 968.348Z" fill="#DEB341"/>
<path d="M30.2753 979.329C30.45 977.845 29.1909 976.521 27.463 976.371C25.7351 976.221 24.1927 977.302 24.018 978.786C23.8433 980.27 25.1024 981.594 26.8303 981.744C28.5582 981.894 30.1006 980.813 30.2753 979.329Z" fill="#DEB341"/>
<path d="M23.2845 966.859C23.4593 965.375 22.2002 964.05 20.4723 963.9C18.7444 963.75 17.202 964.831 17.0273 966.315C16.8526 967.799 18.1117 969.124 19.8396 969.274C21.5675 969.424 23.1098 968.342 23.2845 966.859Z" fill="#DEB341"/>
<path d="M38.4587 964.347C40.0893 963.747 41.9528 964.447 42.5352 965.847C43.234 967.247 42.4187 968.847 40.7881 969.348C39.1576 969.948 37.2941 969.248 36.7117 967.847C36.0129 966.547 36.8282 964.947 38.4587 964.347Z" fill="#DEB341"/>
</g>
<g clip-path="url(#clip1_3738_16400)">
<path d="M1410.93 157.432C1412.29 156.87 1413.84 157.433 1414.5 158.809C1415.16 160.185 1414.5 161.724 1413.13 162.386C1411.76 162.948 1410.21 162.385 1409.55 161.009C1408.9 159.534 1409.56 157.994 1410.93 157.432Z" fill="#DEB341"/>
<path d="M1419.77 153.625C1421.13 153.063 1422.68 153.626 1423.34 155.001C1423.9 156.367 1423.34 157.917 1421.97 158.578C1420.59 159.24 1419.05 158.577 1418.39 157.202C1417.74 155.726 1418.4 154.187 1419.77 153.625Z" fill="#DEB341"/>
<path d="M1431.36 159.151C1432.72 158.589 1434.27 159.152 1434.93 160.528C1435.5 161.893 1434.93 163.443 1433.56 164.105C1432.19 164.667 1430.64 164.104 1429.98 162.728C1429.32 161.352 1429.99 159.713 1431.36 159.151Z" fill="#DEB341"/>
<path d="M1428.61 149.817C1429.97 149.255 1431.52 149.818 1432.18 151.194C1432.75 152.559 1432.18 154.11 1430.81 154.771C1429.43 155.432 1427.89 154.77 1427.23 153.394C1426.68 151.929 1427.24 150.379 1428.61 149.817Z" fill="#DEB341"/>
<path d="M1436.09 124.253C1437.45 123.691 1439 124.254 1439.66 125.629C1440.22 126.995 1439.66 128.545 1438.29 129.206C1436.92 129.768 1435.37 129.205 1434.71 127.83C1434.05 126.454 1434.72 124.815 1436.09 124.253Z" fill="#DEB341"/>
<path d="M1434.63 139.282C1435.99 138.72 1437.54 139.283 1438.2 140.659C1438.77 142.024 1438.2 143.574 1436.83 144.236C1435.45 144.897 1433.91 144.235 1433.25 142.859C1432.69 141.494 1433.26 139.844 1434.63 139.282Z" fill="#DEB341"/>
<path d="M1414.31 172.262C1415.68 171.7 1417.23 172.263 1417.89 173.638C1418.45 175.004 1417.89 176.554 1416.51 177.215C1415.14 177.877 1413.6 177.214 1412.94 175.839C1412.37 174.473 1412.95 172.824 1414.31 172.262Z" fill="#DEB341"/>
<path d="M1424.23 170.676C1425.59 170.114 1427.14 170.677 1427.81 172.053C1428.37 173.418 1427.8 174.969 1426.43 175.63C1425.06 176.192 1423.51 175.629 1422.85 174.253C1422.19 172.878 1422.86 171.238 1424.23 170.676Z" fill="#DEB341"/>
<path d="M1441.65 168.464C1443.02 167.901 1444.57 168.465 1445.23 169.84C1445.79 171.206 1445.23 172.756 1443.85 173.417C1442.49 173.979 1440.94 173.416 1440.27 172.04C1439.61 170.665 1440.28 169.026 1441.65 168.464Z" fill="#DEB341"/>
<path d="M1435.33 211.943C1436.69 211.381 1438.24 211.944 1438.9 213.32C1439.47 214.685 1438.9 216.235 1437.53 216.897C1436.16 217.459 1434.61 216.896 1433.95 215.52C1433.3 214.045 1433.96 212.505 1435.33 211.943Z" fill="#DEB341"/>
<path d="M1440.77 221.457C1442.14 220.895 1443.69 221.458 1444.35 222.833C1444.91 224.199 1444.35 225.749 1442.97 226.41C1441.6 227.072 1440.06 226.409 1439.4 225.034C1438.75 223.559 1439.41 222.019 1440.77 221.457Z" fill="#DEB341"/>
<path d="M1425.95 187.042C1427.31 186.48 1428.86 187.043 1429.53 188.418C1430.09 189.784 1429.52 191.334 1428.15 191.995C1426.78 192.557 1425.23 191.994 1424.57 190.619C1423.92 189.143 1424.58 187.604 1425.95 187.042Z" fill="#DEB341"/>
<path d="M1438.16 181.774C1439.52 181.212 1441.07 181.775 1441.73 183.151C1442.4 184.526 1441.73 186.066 1440.36 186.728C1438.98 187.389 1437.44 186.727 1436.78 185.351C1436.12 183.975 1436.79 182.336 1438.16 181.774Z" fill="#DEB341"/>
<path d="M1433.43 198.274C1434.79 197.712 1436.34 198.275 1437.01 199.651C1437.67 201.026 1437 202.566 1435.63 203.228C1434.26 203.79 1432.71 203.227 1432.05 201.851C1431.39 200.475 1432.06 198.836 1433.43 198.274Z" fill="#DEB341"/>
<path d="M1397.57 152.426C1398.94 151.864 1400.49 152.427 1401.15 153.803C1401.71 155.168 1401.15 156.719 1399.77 157.38C1398.41 157.942 1396.86 157.379 1396.19 156.003C1395.53 154.628 1396.2 153.088 1397.57 152.426Z" fill="#DEB341"/>
<path d="M1398.89 140.7C1400.25 140.138 1401.8 140.701 1402.47 142.077C1403.03 143.442 1402.46 144.992 1401.09 145.654C1399.72 146.216 1398.17 145.652 1397.51 144.277C1396.85 142.901 1397.52 141.262 1398.89 140.7Z" fill="#DEB341"/>
<path d="M1412.74 136.105C1414.1 135.543 1415.65 136.106 1416.31 137.482C1416.88 138.847 1416.31 140.397 1414.94 141.059C1413.57 141.621 1412.02 141.058 1411.36 139.682C1410.71 138.207 1411.37 136.667 1412.74 136.105Z" fill="#DEB341"/>
<path d="M1408.45 144.507C1409.81 143.945 1411.36 144.509 1412.02 145.884C1412.69 147.26 1412.02 148.8 1410.65 149.461C1409.28 150.023 1407.73 149.46 1407.07 148.084C1406.41 146.709 1407.08 145.069 1408.45 144.507Z" fill="#DEB341"/>
<path d="M1427.08 206.161C1428.44 205.599 1429.99 206.162 1430.66 207.537C1431.22 208.903 1430.66 210.453 1429.28 211.114C1427.9 211.776 1426.36 211.113 1425.7 209.738C1425.04 208.362 1425.71 206.723 1427.08 206.161Z" fill="#DEB341"/>
<path d="M1387.66 129.782C1389.02 129.22 1390.57 129.783 1391.23 131.159C1391.8 132.524 1391.23 134.074 1389.86 134.736C1388.49 135.298 1386.94 134.734 1386.28 133.359C1385.63 131.884 1386.29 130.344 1387.66 129.782Z" fill="#DEB341"/>
<path d="M1400.04 121.818C1401.41 121.256 1402.96 121.819 1403.62 123.195C1404.28 124.57 1403.62 126.11 1402.25 126.772C1400.88 127.334 1399.33 126.771 1398.67 125.395C1398.01 124.019 1398.68 122.38 1400.04 121.818Z" fill="#DEB341"/>
<path d="M1423.49 127.469C1424.85 126.907 1426.4 127.47 1427.06 128.846C1427.73 130.222 1427.06 131.762 1425.69 132.423C1424.32 132.985 1422.77 132.422 1422.11 131.046C1421.45 129.671 1422.12 128.031 1423.49 127.469Z" fill="#DEB341"/>
<path d="M1428.88 109.429C1430.24 108.867 1431.79 109.43 1432.46 110.806C1433.12 112.182 1432.45 113.722 1431.08 114.383C1429.7 115.044 1428.16 114.382 1427.5 113.006C1426.84 111.631 1427.51 109.991 1428.88 109.429Z" fill="#DEB341"/>
<path d="M1418.76 143.969C1420.12 143.407 1421.67 143.97 1422.33 145.346C1422.9 146.711 1422.33 148.262 1420.96 148.923C1419.59 149.485 1418.04 148.922 1417.38 147.546C1416.72 146.171 1417.39 144.531 1418.76 143.969Z" fill="#DEB341"/>
<path d="M1377.22 123.772C1378.59 123.21 1380.14 123.773 1380.8 125.149C1381.36 126.514 1380.8 128.064 1379.42 128.726C1378.06 129.288 1376.51 128.725 1375.84 127.349C1375.18 125.973 1375.86 124.334 1377.22 123.772Z" fill="#DEB341"/>
<path d="M1377.84 112.978C1379.2 112.416 1380.75 112.979 1381.42 114.355C1382.08 115.731 1381.41 117.27 1380.04 117.932C1378.67 118.494 1377.12 117.931 1376.46 116.555C1375.81 115.08 1376.47 113.54 1377.84 112.978Z" fill="#DEB341"/>
<path d="M1387.84 108.687C1389.2 108.125 1390.75 108.688 1391.41 110.064C1392.07 111.44 1391.41 112.979 1390.04 113.641C1388.67 114.203 1387.12 113.64 1386.46 112.264C1385.8 110.888 1386.47 109.249 1387.84 108.687Z" fill="#DEB341"/>
<path d="M1389.43 118.505C1390.8 117.943 1392.35 118.506 1393.01 119.881C1393.67 121.257 1393.01 122.797 1391.63 123.458C1390.26 124.02 1388.71 123.457 1388.05 122.081C1387.39 120.706 1388.06 119.067 1389.43 118.505Z" fill="#DEB341"/>
<path d="M1405.89 113.979C1407.25 113.417 1408.8 113.98 1409.46 115.356C1410.12 116.732 1409.46 118.271 1408.09 118.933C1406.71 119.594 1405.17 118.932 1404.51 117.556C1403.85 116.18 1404.51 114.641 1405.89 113.979Z" fill="#DEB341"/>
<path d="M1415.44 117.787C1416.81 117.225 1418.36 117.788 1419.02 119.163C1419.68 120.539 1419.02 122.079 1417.64 122.74C1416.28 123.302 1414.73 122.739 1414.07 121.364C1413.41 119.988 1414.07 118.448 1415.44 117.787Z" fill="#DEB341"/>
<path d="M1400.12 100.714C1401.49 100.152 1403.04 100.715 1403.7 102.091C1404.26 103.456 1403.7 105.006 1402.32 105.667C1400.96 106.23 1399.41 105.666 1398.75 104.291C1398.19 102.925 1398.76 101.276 1400.12 100.714Z" fill="#DEB341"/>
<path d="M1408.27 92.0084C1409.63 91.4464 1411.18 92.0095 1411.84 93.3852C1412.51 94.7608 1411.84 96.3006 1410.47 96.9621C1409.09 97.6236 1407.55 96.9611 1406.89 95.5854C1406.24 94.1103 1406.9 92.5704 1408.27 92.0084Z" fill="#DEB341"/>
<path d="M1415.26 102.085C1416.63 101.523 1418.18 102.086 1418.84 103.461C1419.5 104.837 1418.84 106.377 1417.46 107.038C1416.1 107.6 1414.55 107.037 1413.89 105.662C1413.23 104.286 1413.89 102.746 1415.26 102.085Z" fill="#DEB341"/>
<path d="M1388.53 95.1874C1389.9 94.6254 1391.45 95.1885 1392.11 96.5642C1392.67 97.9295 1392.11 99.4796 1390.73 100.141C1389.37 100.703 1387.82 100.14 1387.16 98.7644C1386.59 97.399 1387.17 95.7494 1388.53 95.1874Z" fill="#DEB341"/>
<path d="M1395.53 86.8649C1396.9 86.3029 1398.45 86.8659 1399.11 88.2416C1399.67 89.6069 1399.11 91.1571 1397.73 91.8186C1396.37 92.3806 1394.81 91.8175 1394.15 90.4418C1393.49 89.0662 1394.15 87.5263 1395.53 86.8649Z" fill="#DEB341"/>
<path d="M1375.53 95.5455C1376.89 94.9835 1378.44 95.5466 1379.1 96.9223C1379.67 98.2876 1379.1 99.8377 1377.73 100.499C1376.36 101.061 1374.81 100.498 1374.15 99.1225C1373.49 97.7468 1374.16 96.1075 1375.53 95.5455Z" fill="#DEB341"/>
<path d="M1386.06 83.1676C1387.43 82.6056 1388.98 83.1687 1389.64 84.5443C1390.3 85.92 1389.64 87.4598 1388.26 88.1213C1386.9 88.6833 1385.35 88.1202 1384.68 86.7446C1384.03 85.2694 1384.7 83.7296 1386.06 83.1676Z" fill="#DEB341"/>
<path d="M1388.41 70.2408C1389.77 69.6788 1391.32 70.2419 1391.99 71.6176C1392.55 72.9829 1391.98 74.533 1390.61 75.1945C1389.24 75.7565 1387.69 75.1935 1387.03 73.8178C1386.37 72.4421 1387.03 70.9023 1388.41 70.2408Z" fill="#DEB341"/>
<path d="M1379.7 26.3065C1380.99 25.5352 1382.65 26.0092 1383.42 27.2957C1384.19 28.5822 1383.71 30.2421 1382.43 31.0134C1381.14 31.7847 1379.48 31.3107 1378.71 30.0242C1377.95 28.6382 1378.32 26.968 1379.7 26.3065Z" fill="#DEB341"/>
<path d="M1388.04 21.5418C1389.32 20.7705 1390.98 21.2444 1391.75 22.531C1392.52 23.8175 1392.05 25.4774 1390.76 26.2487C1389.48 27.02 1387.82 26.546 1387.05 25.2595C1386.29 23.8735 1386.76 22.2136 1388.04 21.5418Z" fill="#DEB341"/>
<path d="M1400.17 25.7176C1401.46 24.9463 1403.12 25.4202 1403.89 26.7067C1404.66 27.9933 1404.18 29.6532 1402.9 30.4245C1401.61 31.1957 1399.95 30.7218 1399.18 29.4353C1398.41 28.1488 1398.88 26.4888 1400.17 25.7176Z" fill="#DEB341"/>
<path d="M1412.65 15.8543C1413.94 15.083 1415.6 15.5569 1416.37 16.8435C1417.14 18.13 1416.67 19.7899 1415.38 20.5612C1414.1 21.3325 1412.44 20.8585 1411.67 19.572C1410.89 18.2855 1411.37 16.6255 1412.65 15.8543Z" fill="#DEB341"/>
<path d="M1396.47 16.7879C1397.76 16.0166 1399.42 16.4905 1400.19 17.7771C1400.96 19.0636 1400.49 20.7235 1399.2 21.4948C1397.91 22.2661 1396.25 21.7921 1395.48 20.5056C1394.72 19.1196 1395.2 17.4597 1396.47 16.7879Z" fill="#DEB341"/>
<path d="M1401.35 5.63168C1402.64 4.8604 1404.3 5.33435 1405.07 6.62088C1405.84 7.9074 1405.36 9.56733 1404.08 10.3386C1402.79 11.1099 1401.13 10.6359 1400.36 9.34941C1399.59 8.06288 1399.96 6.39262 1401.35 5.63168Z" fill="#DEB341"/>
<path d="M1384.74 40.7039C1386.03 39.9326 1387.69 40.4065 1388.46 41.6931C1389.23 42.9796 1388.75 44.6395 1387.47 45.4108C1386.18 46.1821 1384.52 45.7081 1383.75 44.4216C1382.99 43.0356 1383.46 41.3757 1384.74 40.7039Z" fill="#DEB341"/>
<path d="M1394.37 37.9842C1395.66 37.2129 1397.32 37.6869 1398.09 38.9734C1398.86 40.2599 1398.39 41.9199 1397.1 42.6911C1395.81 43.4624 1394.15 42.9885 1393.38 41.7019C1392.61 40.4154 1392.99 38.7452 1394.37 37.9842Z" fill="#DEB341"/>
<path d="M1411.38 33.9187C1412.67 33.1475 1414.33 33.6214 1415.1 34.9079C1415.87 36.1944 1415.4 37.8544 1414.11 38.6256C1412.82 39.3969 1411.16 38.923 1410.39 37.6365C1409.63 36.2505 1410.11 34.5905 1411.38 33.9187Z" fill="#DEB341"/>
<path d="M1420.77 25.8446C1422.05 25.0733 1423.71 25.5472 1424.48 26.8338C1425.25 28.1203 1424.78 29.7802 1423.49 30.5515C1422.21 31.3228 1420.55 30.8488 1419.78 29.5623C1419.02 28.1763 1419.39 26.5061 1420.77 25.8446Z" fill="#DEB341"/>
<path d="M1409.94 77.8055C1411.23 77.0342 1412.89 77.5082 1413.66 78.7947C1414.43 80.0812 1413.96 81.7412 1412.67 82.5124C1411.38 83.2837 1409.72 82.8097 1408.95 81.5232C1408.19 80.1372 1408.57 78.467 1409.94 77.8055Z" fill="#DEB341"/>
<path d="M1431.34 83.7469C1432.63 82.9756 1434.29 83.4496 1435.06 84.7361C1435.83 86.0226 1435.36 87.6826 1434.07 88.4538C1432.79 89.2251 1431.13 88.7512 1430.35 87.4646C1429.59 86.0787 1429.97 84.4084 1431.34 83.7469Z" fill="#DEB341"/>
<path d="M1437.89 95.284C1439.17 94.5127 1440.83 94.9866 1441.6 96.2731C1442.38 97.5597 1441.9 99.2196 1440.62 99.9909C1439.33 100.762 1437.67 100.288 1436.9 99.0017C1436.14 97.6157 1436.61 95.9558 1437.89 95.284Z" fill="#DEB341"/>
<path d="M1440.03 104.656C1441.32 103.885 1442.98 104.359 1443.75 105.645C1444.52 106.932 1444.05 108.592 1442.76 109.363C1441.47 110.134 1439.81 109.66 1439.04 108.374C1438.27 107.087 1438.74 105.427 1440.03 104.656Z" fill="#DEB341"/>
<path d="M1427.08 95.7703C1428.37 94.999 1430.03 95.473 1430.8 96.7595C1431.57 98.046 1431.09 99.7059 1429.81 100.477C1428.52 101.248 1426.86 100.775 1426.09 99.488C1425.32 98.2015 1425.79 96.5416 1427.08 95.7703Z" fill="#DEB341"/>
<path d="M1416.37 86.6161C1417.65 85.8448 1419.31 86.3187 1420.08 87.6053C1420.86 88.8918 1420.38 90.5517 1419.1 91.323C1417.81 92.0943 1416.15 91.6203 1415.38 90.3338C1414.61 89.0473 1414.98 87.377 1416.37 86.6161Z" fill="#DEB341"/>
<path d="M1397.83 54.0271C1399.12 53.2558 1400.78 53.7298 1401.55 55.0163C1402.32 56.3028 1401.85 57.9628 1400.56 58.7341C1399.28 59.5053 1397.62 59.0314 1396.84 57.7449C1396.07 56.4583 1396.55 54.7984 1397.83 54.0271Z" fill="#DEB341"/>
<path d="M1409.37 47.4836C1410.66 46.7123 1412.32 47.1863 1413.09 48.4728C1413.86 49.7593 1413.39 51.4192 1412.1 52.1905C1410.81 52.9618 1409.15 52.4878 1408.38 51.2013C1407.71 49.9251 1408.08 48.2549 1409.37 47.4836Z" fill="#DEB341"/>
<path d="M1424.23 41.8884C1425.51 41.1172 1427.17 41.5911 1427.95 42.8777C1428.72 44.1642 1428.24 45.8241 1426.96 46.5954C1425.67 47.3667 1424.01 46.8927 1423.24 45.6062C1422.48 44.2202 1422.95 42.5603 1424.23 41.8884Z" fill="#DEB341"/>
<path d="M1418.05 57.8357C1419.33 57.0644 1420.99 57.5384 1421.77 58.8249C1422.54 60.1114 1422.06 61.7714 1420.78 62.5426C1419.49 63.3139 1417.83 62.84 1417.06 61.5534C1416.29 60.2669 1416.76 58.607 1418.05 57.8357Z" fill="#DEB341"/>
<path d="M1406.5 64.4783C1407.79 63.707 1409.45 64.181 1410.22 65.4675C1410.99 66.754 1410.52 68.414 1409.23 69.1852C1407.94 69.9565 1406.28 69.4825 1405.51 68.196C1404.75 66.81 1405.22 65.1501 1406.5 64.4783Z" fill="#DEB341"/>
<path d="M1430.77 53.426C1432.06 52.6547 1433.72 53.1286 1434.49 54.4152C1435.26 55.7017 1434.79 57.3616 1433.5 58.1329C1432.21 58.9042 1430.55 58.4302 1429.78 57.1437C1429.12 55.768 1429.49 54.1972 1430.77 53.426Z" fill="#DEB341"/>
<path d="M1421.36 68.5349C1422.65 67.7637 1424.31 68.2376 1425.08 69.5241C1425.85 70.8107 1425.38 72.4706 1424.09 73.2419C1422.8 74.0131 1421.14 73.5392 1420.37 72.2527C1419.61 70.8667 1420.07 69.3062 1421.36 68.5349Z" fill="#DEB341"/>
<path d="M1365.88 22.8611C1367.17 22.0898 1368.83 22.5638 1369.6 23.8503C1370.37 25.1368 1369.9 26.7967 1368.61 27.568C1367.32 28.3393 1365.66 27.8654 1364.89 26.5788C1364.13 25.1928 1364.6 23.5329 1365.88 22.8611Z" fill="#DEB341"/>
<path d="M1365.91 11.0008C1367.19 10.2295 1368.85 10.7034 1369.62 11.99C1370.39 13.2765 1369.92 14.9364 1368.63 15.7077C1367.35 16.4789 1365.69 16.005 1364.92 14.7185C1364.16 13.3325 1364.63 11.6726 1365.91 11.0008Z" fill="#DEB341"/>
<path d="M1379.11 4.83181C1380.4 4.06054 1382.06 4.53449 1382.83 5.82101C1383.6 7.10753 1383.13 8.76746 1381.84 9.53873C1380.56 10.31 1378.9 9.83606 1378.12 8.54954C1377.35 7.26302 1377.83 5.60308 1379.11 4.83181Z" fill="#DEB341"/>
<path d="M1375.78 13.7342C1377.06 12.9629 1378.72 13.4368 1379.49 14.7233C1380.27 16.0099 1379.79 17.6698 1378.5 18.4411C1377.22 19.2124 1375.56 18.7384 1374.79 17.4519C1374.03 16.0659 1374.5 14.406 1375.78 13.7342Z" fill="#DEB341"/>
<path d="M1401.09 72.9656C1402.38 72.1943 1404.04 72.6683 1404.81 73.9548C1405.58 75.2413 1405.11 76.9013 1403.82 77.6725C1402.54 78.4438 1400.88 77.9699 1400.11 76.6833C1399.34 75.2973 1399.81 73.7369 1401.09 72.9656Z" fill="#DEB341"/>
<path d="M1430.12 70.3484C1431.41 69.5771 1433.07 70.0511 1433.84 71.3376C1434.61 72.6241 1434.14 74.2841 1432.85 75.0553C1431.56 75.8266 1429.9 75.3527 1429.13 74.0661C1428.36 72.7796 1428.83 71.1197 1430.12 70.3484Z" fill="#DEB341"/>
<path d="M1353.53 1.37185C1354.82 0.600579 1356.48 1.07452 1357.25 2.36104C1358.02 3.64757 1357.55 5.3075 1356.26 6.07877C1354.98 6.85005 1353.32 6.3761 1352.54 5.08957C1351.78 3.70359 1352.26 2.04366 1353.53 1.37185Z" fill="#DEB341"/>
<path d="M1388.86 -4.81328C1390.15 -5.58456 1391.81 -5.11061 1392.58 -3.82409C1393.35 -2.53757 1392.88 -0.877633 1391.59 -0.106361C1390.3 0.664911 1388.64 0.190968 1387.87 -1.09555C1387.21 -2.47122 1387.59 -4.14148 1388.86 -4.81328Z" fill="#DEB341"/>
<path d="M1386 12.0818C1387.29 11.3105 1388.95 11.7845 1389.72 13.071C1390.49 14.3575 1390.02 16.0175 1388.73 16.7887C1387.44 17.56 1385.78 17.0861 1385.01 15.7995C1384.25 14.4136 1384.71 12.8531 1386 12.0818Z" fill="#DEB341"/>
<path d="M1342.48 -3.49632C1343.76 -4.26759 1345.42 -3.79364 1346.2 -2.50712C1346.97 -1.22059 1346.49 0.439335 1345.21 1.21061C1343.92 1.98188 1342.26 1.50794 1341.49 0.221414C1340.73 -1.16457 1341.19 -2.72504 1342.48 -3.49632Z" fill="#DEB341"/>
<path d="M1401.88 260.046C1401.82 261.549 1400.6 262.728 1399.09 262.673C1397.59 262.617 1396.41 261.389 1396.47 259.887C1396.52 258.384 1397.75 257.205 1399.25 257.26C1400.76 257.316 1401.94 258.544 1401.88 260.046Z" fill="#DEB341"/>
<path d="M1401.67 269.778C1401.62 271.28 1400.39 272.46 1398.89 272.404C1397.39 272.349 1396.21 271.12 1396.26 269.618C1396.32 268.116 1397.55 266.936 1399.05 266.992C1400.55 267.047 1401.73 268.275 1401.67 269.778Z" fill="#DEB341"/>
<path d="M1391.77 277.999C1391.72 279.502 1390.49 280.681 1388.99 280.626C1387.48 280.57 1386.31 279.342 1386.36 277.84C1386.42 276.337 1387.64 275.158 1389.15 275.213C1390.65 275.269 1391.83 276.497 1391.77 277.999Z" fill="#DEB341"/>
<path d="M1393.86 293.699C1393.81 295.201 1392.58 296.38 1391.08 296.325C1389.57 296.27 1388.39 295.041 1388.45 293.539C1388.51 292.037 1389.73 290.857 1391.24 290.913C1392.74 290.968 1393.92 292.196 1393.86 293.699Z" fill="#DEB341"/>
<path d="M1401.48 279.409C1401.42 280.911 1400.2 282.09 1398.69 282.035C1397.19 281.98 1396.01 280.751 1396.07 279.249C1396.12 277.747 1397.35 276.567 1398.85 276.623C1400.35 276.678 1401.53 277.906 1401.48 279.409Z" fill="#DEB341"/>
<path d="M1421.59 296.779C1421.54 298.281 1420.31 299.46 1418.81 299.405C1417.3 299.35 1416.12 298.121 1416.18 296.619C1416.24 295.117 1417.46 293.937 1418.97 293.993C1420.47 294.048 1421.65 295.276 1421.59 296.779Z" fill="#DEB341"/>
<path d="M1421.63 309.954C1421.58 311.456 1420.35 312.635 1418.85 312.58C1417.34 312.524 1416.16 311.296 1416.22 309.794C1416.28 308.291 1417.5 307.112 1419.01 307.167C1420.51 307.223 1421.69 308.451 1421.63 309.954Z" fill="#DEB341"/>
<path d="M1408.51 289.186C1408.45 290.689 1407.22 291.868 1405.72 291.813C1404.22 291.757 1403.04 290.529 1403.09 289.027C1403.15 287.524 1404.38 286.345 1405.88 286.4C1407.38 286.456 1408.55 287.784 1408.51 289.186Z" fill="#DEB341"/>
<path d="M1386.92 256.985C1386.86 258.488 1385.63 259.667 1384.13 259.612C1382.63 259.556 1381.45 258.328 1381.5 256.826C1381.56 255.323 1382.79 254.144 1384.29 254.199C1385.79 254.255 1386.96 255.582 1386.92 256.985Z" fill="#DEB341"/>
<path d="M1384.3 266.667C1384.25 268.17 1383.02 269.349 1381.52 269.294C1380.01 269.238 1378.83 268.01 1378.89 266.508C1378.95 265.005 1380.17 263.826 1381.68 263.881C1383.18 263.937 1384.36 265.165 1384.3 266.667Z" fill="#DEB341"/>
<path d="M1379.05 283.413C1378.99 284.916 1377.76 286.095 1376.26 286.04C1374.76 285.984 1373.58 284.756 1373.63 283.254C1373.69 281.751 1374.92 280.572 1376.42 280.627C1377.92 280.683 1379.1 281.911 1379.05 283.413Z" fill="#DEB341"/>
<path d="M1381.2 295.601C1381.14 297.103 1379.91 298.283 1378.41 298.227C1376.91 298.172 1375.73 296.944 1375.79 295.441C1375.84 293.939 1377.07 292.759 1378.57 292.815C1380.07 292.87 1381.25 294.099 1381.2 295.601Z" fill="#DEB341"/>
<path d="M1368.76 261.434C1368.7 262.936 1367.48 264.116 1365.97 264.06C1364.47 264.005 1363.29 262.777 1363.35 261.274C1363.4 259.772 1364.63 258.592 1366.13 258.648C1367.54 258.693 1368.72 259.921 1368.76 261.434Z" fill="#DEB341"/>
<path d="M1436.14 306.735C1436.09 308.237 1434.86 309.417 1433.36 309.361C1431.85 309.306 1430.67 308.077 1430.73 306.575C1430.79 305.073 1432.01 303.893 1433.52 303.949C1435.02 304.004 1436.1 305.222 1436.14 306.735Z" fill="#DEB341"/>
<path d="M1368.38 274.766C1368.33 276.268 1367.1 277.448 1365.6 277.392C1364.09 277.337 1362.91 276.109 1362.97 274.606C1363.02 273.104 1364.25 271.924 1365.75 271.98C1367.26 272.035 1368.44 273.264 1368.38 274.766Z" fill="#DEB341"/>
<path d="M1411.87 250.025C1411.81 251.527 1410.58 252.707 1409.08 252.651C1407.58 252.596 1406.4 251.367 1406.46 249.865C1406.51 248.363 1407.74 247.183 1409.24 247.239C1410.74 247.294 1411.92 248.523 1411.87 250.025Z" fill="#DEB341"/>
<path d="M1422.09 256.113C1422.04 257.615 1420.81 258.794 1419.31 258.739C1417.81 258.684 1416.63 257.455 1416.68 255.953C1416.74 254.451 1417.97 253.271 1419.47 253.327C1420.97 253.382 1422.15 254.61 1422.09 256.113Z" fill="#DEB341"/>
<path d="M1420.59 270.635C1420.53 272.137 1419.3 273.317 1417.8 273.262C1416.3 273.206 1415.12 271.978 1415.17 270.475C1415.23 268.973 1416.46 267.794 1417.96 267.849C1419.36 267.894 1420.54 269.123 1420.59 270.635Z" fill="#DEB341"/>
<path d="M1414.72 263.19C1414.67 264.693 1413.44 265.872 1411.94 265.817C1410.44 265.761 1409.26 264.533 1409.31 263.031C1409.37 261.528 1410.6 260.349 1412.1 260.404C1413.5 260.449 1414.67 261.777 1414.72 263.19Z" fill="#DEB341"/>
<path d="M1436.76 250.397C1436.71 251.9 1435.48 253.079 1433.98 253.024C1432.48 252.968 1431.3 251.74 1431.35 250.238C1431.41 248.735 1432.64 247.556 1434.14 247.611C1435.54 247.656 1436.71 248.984 1436.76 250.397Z" fill="#DEB341"/>
<path d="M1438.77 264.982C1438.71 266.484 1437.48 267.664 1435.98 267.608C1434.48 267.553 1433.3 266.324 1433.36 264.822C1433.41 263.32 1434.64 262.14 1436.14 262.196C1437.64 262.251 1438.82 263.48 1438.77 264.982Z" fill="#DEB341"/>
<path d="M1423.83 283.941C1423.78 285.443 1422.55 286.623 1421.04 286.567C1419.54 286.512 1418.36 285.283 1418.42 283.781C1418.47 282.279 1419.7 281.099 1421.2 281.155C1422.71 281.21 1423.89 282.439 1423.83 283.941Z" fill="#DEB341"/>
<path d="M1438.12 296.383C1438.07 297.886 1436.84 299.065 1435.34 299.01C1433.83 298.954 1432.65 297.726 1432.71 296.223C1432.77 294.721 1433.99 293.542 1435.5 293.597C1436.9 293.642 1438.08 294.871 1438.12 296.383Z" fill="#DEB341"/>
<path d="M1410.81 272.837C1410.75 274.34 1409.52 275.519 1408.02 275.464C1406.52 275.408 1405.34 274.18 1405.4 272.678C1405.45 271.175 1406.68 269.996 1408.18 270.051C1409.68 270.107 1410.86 271.335 1410.81 272.837Z" fill="#DEB341"/>
<path d="M1443.41 273.507C1443.36 275.01 1442.13 276.189 1440.63 276.134C1439.12 276.078 1437.94 274.85 1438 273.348C1438.06 271.845 1439.28 270.666 1440.79 270.721C1442.29 270.777 1443.47 272.005 1443.41 273.507Z" fill="#DEB341"/>
<path d="M1436.04 280.584C1435.99 282.086 1434.76 283.266 1433.26 283.21C1431.75 283.155 1430.57 281.926 1430.63 280.424C1430.69 278.922 1431.91 277.742 1433.42 277.798C1434.92 277.853 1436.09 279.181 1436.04 280.584Z" fill="#DEB341"/>
<path d="M1410.54 130.147C1410.54 131.152 1409.76 131.875 1408.75 131.872C1407.75 131.868 1407.02 131.089 1407.03 130.084C1407.03 129.079 1407.81 128.355 1408.82 128.359C1409.82 128.363 1410.54 129.142 1410.54 130.147Z" fill="#DEB341"/>
<path d="M1443.15 48.477C1443.14 49.482 1442.37 50.2054 1441.36 50.2016C1440.36 50.1978 1439.63 49.4189 1439.64 48.414C1439.64 47.409 1440.42 46.6855 1441.42 46.6893C1442.43 46.6931 1443.15 47.472 1443.15 48.477Z" fill="#DEB341"/>
<path d="M1395.27 7.01208C1395.27 8.01706 1394.49 8.74051 1393.49 8.73671C1392.48 8.73291 1391.76 7.95404 1391.76 6.94906C1391.77 5.94408 1392.54 5.22064 1393.55 5.22444C1394.55 5.22824 1395.27 6.10657 1395.27 7.01208Z" fill="#DEB341"/>
<path d="M1365.97 4.57268C1365.97 5.57766 1365.19 6.30109 1364.18 6.2973C1363.18 6.2935 1362.45 5.51463 1362.46 4.50965C1362.46 3.50467 1363.24 2.78123 1364.24 2.78503C1365.25 2.78883 1365.97 3.5677 1365.97 4.57268Z" fill="#DEB341"/>
<path d="M1371.92 177.714C1373.29 177.151 1374.84 177.715 1375.5 179.09C1376.06 180.456 1375.5 182.006 1374.12 182.667C1372.75 183.329 1371.21 182.666 1370.55 181.29C1369.89 179.815 1370.56 178.276 1371.92 177.714Z" fill="#DEB341"/>
<path d="M1361.13 177.095C1362.49 176.533 1364.04 177.096 1364.71 178.472C1365.27 179.837 1364.7 181.388 1363.33 182.049C1361.96 182.611 1360.41 182.048 1359.75 180.672C1359.1 179.197 1359.76 177.657 1361.13 177.095Z" fill="#DEB341"/>
<path d="M1405.5 202.916C1406.95 202.463 1408.47 203.325 1408.83 204.769C1409.18 206.213 1408.42 207.743 1406.97 208.095C1405.52 208.548 1404 207.686 1403.65 206.242C1403.28 204.897 1404.14 203.378 1405.5 202.916Z" fill="#DEB341"/>
<path d="M1414.82 200.263C1416.28 199.811 1417.8 200.673 1418.15 202.117C1418.5 203.561 1417.74 205.09 1416.3 205.443C1414.84 205.895 1413.32 205.034 1412.97 203.59C1412.62 202.146 1413.37 200.716 1414.82 200.263Z" fill="#DEB341"/>
<path d="M1392.9 196.479C1394.35 196.027 1395.87 196.889 1396.22 198.333C1396.68 199.787 1395.81 201.306 1394.37 201.659C1392.92 202.111 1391.4 201.25 1391.04 199.806C1390.69 198.361 1391.45 196.832 1392.9 196.479Z" fill="#DEB341"/>
<path d="M1395.71 184.908C1397.16 184.456 1398.68 185.317 1399.03 186.761C1399.39 188.206 1398.62 189.735 1397.18 190.088C1395.74 190.441 1394.21 189.679 1393.85 188.234C1393.5 186.79 1394.26 185.261 1395.71 184.908Z" fill="#DEB341"/>
<path d="M1413.42 185.192C1413.72 183.731 1412.78 182.303 1411.32 182C1409.86 181.698 1408.43 182.636 1408.13 184.096C1407.83 185.557 1408.76 186.985 1410.22 187.288C1411.68 187.59 1413.11 186.652 1413.42 185.192Z" fill="#DEB341"/>
<path d="M1405.25 195.146C1406.74 195.27 1408.05 194.167 1408.17 192.681C1408.29 191.195 1407.19 189.889 1405.71 189.765C1404.22 189.64 1402.91 190.744 1402.79 192.23C1402.66 193.716 1403.77 195.021 1405.25 195.146Z" fill="#DEB341"/>
<path d="M1357.2 188.752C1357.15 190.255 1355.92 191.434 1354.42 191.379C1352.92 191.323 1351.74 190.095 1351.79 188.593C1351.85 187.09 1353.08 185.911 1354.58 185.966C1356.08 186.022 1357.26 187.25 1357.2 188.752Z" fill="#DEB341"/>
<path d="M1366.84 193.774C1366.78 195.276 1365.55 196.456 1364.05 196.4C1362.55 196.345 1361.37 195.116 1361.42 193.614C1361.48 192.112 1362.71 190.932 1364.21 190.988C1365.61 191.033 1366.79 192.261 1366.84 193.774Z" fill="#DEB341"/>
<path d="M1375.89 190.793C1375.84 192.295 1374.61 193.475 1373.11 193.419C1371.6 193.364 1370.43 192.135 1370.48 190.633C1370.54 189.131 1371.76 187.951 1373.27 188.007C1374.77 188.062 1375.94 189.39 1375.89 190.793Z" fill="#DEB341"/>
<path d="M1366.51 204.698C1366.45 206.2 1365.22 207.379 1363.72 207.324C1362.22 207.269 1361.04 206.04 1361.09 204.538C1361.15 203.036 1362.38 201.856 1363.88 201.912C1365.38 201.967 1366.56 203.195 1366.51 204.698Z" fill="#DEB341"/>
<path d="M1356.93 201.996C1356.88 203.498 1355.65 204.677 1354.15 204.622C1352.65 204.566 1351.47 203.338 1351.52 201.836C1351.58 200.333 1352.81 199.154 1354.31 199.209C1355.81 199.265 1356.99 200.493 1356.93 201.996Z" fill="#DEB341"/>
<path d="M1368.62 219.194C1368.57 220.696 1367.34 221.876 1365.84 221.82C1364.33 221.765 1363.15 220.536 1363.21 219.034C1363.26 217.532 1364.49 216.352 1366 216.408C1367.5 216.463 1368.68 217.691 1368.62 219.194Z" fill="#DEB341"/>
<path d="M1373.21 230.226C1373.15 231.728 1371.92 232.908 1370.42 232.852C1368.92 232.797 1367.74 231.569 1367.79 230.066C1367.85 228.564 1369.08 227.384 1370.58 227.44C1372.08 227.495 1373.26 228.724 1373.21 230.226Z" fill="#DEB341"/>
<path d="M1384.08 235.879C1384.03 237.382 1382.8 238.561 1381.29 238.506C1379.79 238.45 1378.61 237.222 1378.67 235.72C1378.72 234.217 1379.95 233.038 1381.45 233.093C1382.96 233.149 1384.14 234.377 1384.08 235.879Z" fill="#DEB341"/>
<path d="M1378.52 210.972C1378.47 212.474 1377.24 213.654 1375.74 213.598C1374.23 213.543 1373.06 212.315 1373.11 210.812C1373.17 209.31 1374.39 208.131 1375.9 208.186C1377.4 208.241 1378.48 209.459 1378.52 210.972Z" fill="#DEB341"/>
<path d="M1383.14 220.701C1383.09 222.203 1381.86 223.383 1380.36 223.327C1378.85 223.272 1377.68 222.044 1377.73 220.541C1377.79 219.039 1379.01 217.86 1380.52 217.915C1382.02 217.97 1383.09 219.288 1383.14 220.701Z" fill="#DEB341"/>
<path d="M1393.02 227.256C1392.96 228.759 1391.74 229.938 1390.23 229.883C1388.73 229.827 1387.55 228.599 1387.61 227.096C1387.66 225.594 1388.89 224.415 1390.39 224.47C1391.89 224.526 1393.07 225.754 1393.02 227.256Z" fill="#DEB341"/>
<path d="M1388.86 246.027C1388.8 247.529 1387.58 248.709 1386.07 248.653C1384.57 248.598 1383.39 247.369 1383.45 245.867C1383.5 244.365 1384.73 243.185 1386.23 243.241C1387.73 243.296 1388.91 244.524 1388.86 246.027Z" fill="#DEB341"/>
<path d="M1396.01 208.163C1395.95 209.665 1394.72 210.844 1393.22 210.789C1391.72 210.733 1390.54 209.505 1390.59 208.003C1390.65 206.5 1391.88 205.321 1393.38 205.376C1394.88 205.432 1396.06 206.66 1396.01 208.163Z" fill="#DEB341"/>
<path d="M1378.21 201.389C1378.21 202.394 1377.43 203.118 1376.42 203.114C1375.42 203.11 1374.7 202.331 1374.7 201.326C1374.7 200.321 1375.48 199.598 1376.49 199.601C1377.49 199.605 1378.22 200.384 1378.21 201.389Z" fill="#DEB341"/>
<path d="M1401.54 179.079C1401.54 180.084 1400.76 180.807 1399.75 180.803C1398.75 180.8 1398.02 180.021 1398.03 179.016C1398.03 178.011 1398.81 177.287 1399.82 177.291C1400.81 177.394 1401.53 178.173 1401.54 179.079Z" fill="#DEB341"/>
<path d="M1386.6 190.296C1386.6 191.301 1385.82 192.025 1384.81 192.021C1383.81 192.017 1383.09 191.238 1383.09 190.233C1383.09 189.228 1383.87 188.505 1384.88 188.509C1385.88 188.512 1386.61 189.291 1386.6 190.296Z" fill="#DEB341"/>
<path d="M1364.28 129.265C1365.65 128.703 1367.2 129.266 1367.86 130.642C1368.42 132.007 1367.86 133.557 1366.48 134.219C1365.11 134.88 1363.57 134.218 1362.91 132.842C1362.25 131.467 1362.92 129.827 1364.28 129.265Z" fill="#DEB341"/>
<path d="M1353.49 128.647C1354.86 128.085 1356.41 128.648 1357.07 130.024C1357.63 131.389 1357.07 132.939 1355.69 133.601C1354.33 134.163 1352.78 133.6 1352.11 132.224C1351.45 130.848 1352.13 129.209 1353.49 128.647Z" fill="#DEB341"/>
<path d="M1385.26 148.032C1386.71 147.58 1388.23 148.441 1388.59 149.885C1389.04 151.34 1388.18 152.859 1386.73 153.212C1385.28 153.664 1383.76 152.803 1383.41 151.358C1383.05 149.914 1383.8 148.484 1385.26 148.032Z" fill="#DEB341"/>
<path d="M1368.24 142.445C1368.19 143.947 1366.96 145.127 1365.46 145.071C1363.96 145.016 1362.78 143.787 1362.83 142.285C1362.89 140.783 1364.12 139.603 1365.62 139.659C1367.12 139.714 1368.3 140.942 1368.24 142.445Z" fill="#DEB341"/>
<path d="M1370.57 152.941C1370.57 153.946 1369.79 154.67 1368.79 154.666C1367.78 154.662 1367.06 153.883 1367.06 152.878C1367.06 151.873 1367.84 151.15 1368.85 151.154C1369.84 151.257 1370.57 152.036 1370.57 152.941Z" fill="#DEB341"/>
<path d="M1378.96 141.848C1378.96 142.853 1378.18 143.576 1377.18 143.573C1376.17 143.569 1375.45 142.79 1375.45 141.785C1375.46 140.78 1376.23 140.057 1377.24 140.06C1378.24 140.064 1378.97 140.843 1378.96 141.848Z" fill="#DEB341"/>
<path d="M1385.88 162.372C1385.88 163.377 1385.1 164.101 1384.09 164.097C1383.09 164.093 1382.37 163.314 1382.37 162.309C1382.37 161.304 1383.15 160.581 1384.16 160.585C1385.16 160.589 1385.88 161.368 1385.88 162.372Z" fill="#DEB341"/>
<path d="M1391.3 216.722C1391.24 218.224 1390.01 219.404 1388.51 219.348C1387.01 219.293 1385.83 218.065 1385.89 216.562C1385.94 215.06 1387.17 213.881 1388.67 213.936C1390.17 213.991 1391.35 215.22 1391.3 216.722Z" fill="#DEB341"/>
<path d="M1412.18 228.643C1412.12 230.145 1410.89 231.324 1409.39 231.269C1407.89 231.213 1406.71 229.985 1406.77 228.483C1406.82 226.98 1408.05 225.801 1409.55 225.856C1411.05 225.912 1412.22 227.24 1412.18 228.643Z" fill="#DEB341"/>
<path d="M1400.08 237.642C1400.03 239.144 1398.8 240.324 1397.3 240.268C1395.8 240.213 1394.62 238.985 1394.67 237.482C1394.73 235.98 1395.96 234.8 1397.46 234.856C1398.96 234.911 1400.14 236.14 1400.08 237.642Z" fill="#DEB341"/>
<path d="M1416.76 239.675C1416.71 241.178 1415.48 242.357 1413.98 242.302C1412.48 242.246 1411.3 241.018 1411.35 239.515C1411.41 238.013 1412.63 236.834 1414.14 236.889C1415.64 236.945 1416.82 238.173 1416.76 239.675Z" fill="#DEB341"/>
<path d="M1422.08 220.421C1422.03 221.924 1420.8 223.103 1419.29 223.048C1417.79 222.992 1416.61 221.764 1416.67 220.262C1416.72 218.759 1417.95 217.58 1419.45 217.635C1420.86 217.68 1422.04 218.909 1422.08 220.421Z" fill="#DEB341"/>
<path d="M1426.69 230.249C1426.63 231.752 1425.41 232.931 1423.9 232.876C1422.4 232.82 1421.22 231.592 1421.28 230.09C1421.33 228.587 1422.56 227.408 1424.06 227.463C1425.47 227.508 1426.65 228.737 1426.69 230.249Z" fill="#DEB341"/>
<path d="M1436.57 236.804C1436.51 238.306 1435.28 239.486 1433.78 239.43C1432.28 239.375 1431.1 238.147 1431.15 236.644C1431.21 235.142 1432.44 233.963 1433.94 234.018C1435.44 234.073 1436.62 235.302 1436.57 236.804Z" fill="#DEB341"/>
<path d="M1434.86 226.171C1434.8 227.673 1433.57 228.853 1432.07 228.797C1430.57 228.742 1429.39 227.513 1429.44 226.011C1429.5 224.509 1430.73 223.329 1432.23 223.385C1433.72 223.54 1434.9 224.768 1434.86 226.171Z" fill="#DEB341"/>
<path d="M1400.01 222.855C1399.96 224.357 1398.73 225.537 1397.23 225.481C1395.72 225.426 1394.54 224.197 1394.6 222.695C1394.65 221.193 1395.88 220.013 1397.38 220.069C1398.89 220.124 1400.07 221.353 1400.01 222.855Z" fill="#DEB341"/>
<path d="M1385.92 172.632C1387.38 172.179 1388.9 173.041 1389.25 174.485C1389.7 175.939 1388.84 177.459 1387.4 177.811C1385.94 178.264 1384.42 177.402 1384.07 175.958C1383.72 174.514 1384.47 173.084 1385.92 172.632Z" fill="#DEB341"/>
<path d="M1443.58 316.454C1445.05 316.808 1446.01 318.214 1445.66 319.686C1445.3 321.157 1443.9 322.117 1442.42 321.763C1440.95 321.409 1439.99 320.003 1440.35 318.531C1440.7 317.06 1442.1 316.199 1443.58 316.454Z" fill="#DEB341"/>
<path d="M1433.67 323.771C1432.74 324.981 1431.11 325.214 1429.9 324.284C1428.69 323.354 1428.45 321.721 1429.38 320.51C1430.31 319.3 1431.95 319.067 1433.16 319.997C1434.27 320.917 1434.6 322.56 1433.67 323.771Z" fill="#DEB341"/>
<path d="M1438.5 333.421C1437.57 334.631 1435.94 334.864 1434.73 333.934C1433.52 333.004 1433.28 331.371 1434.21 330.161C1435.14 328.95 1436.78 328.718 1437.99 329.648C1439.2 330.578 1439.43 332.21 1438.5 333.421Z" fill="#DEB341"/>
<path d="M1431.97 342.093C1431.04 343.303 1429.41 343.536 1428.2 342.606C1426.99 341.676 1426.75 340.043 1427.68 338.833C1428.61 337.622 1430.25 337.39 1431.46 338.32C1432.67 339.25 1432.89 340.982 1431.97 342.093Z" fill="#DEB341"/>
<path d="M1425.73 334.407C1424.8 335.618 1423.17 335.85 1421.96 334.92C1420.75 333.99 1420.51 332.358 1421.44 331.147C1422.37 329.937 1424.01 329.704 1425.22 330.634C1426.33 331.554 1426.56 333.186 1425.73 334.407Z" fill="#DEB341"/>
<path d="M1425.28 355.172C1424.35 356.382 1422.72 356.615 1421.51 355.685C1420.3 354.755 1420.07 353.122 1421 351.912C1421.93 350.701 1423.56 350.469 1424.77 351.399C1425.88 352.318 1426.11 353.951 1425.28 355.172Z" fill="#DEB341"/>
<path d="M1422.57 366.754C1421.64 367.964 1420.01 368.197 1418.8 367.267C1417.59 366.337 1417.36 364.704 1418.29 363.494C1419.22 362.283 1420.85 362.051 1422.06 362.981C1423.27 363.911 1423.5 365.543 1422.57 366.754Z" fill="#DEB341"/>
<path d="M1438.05 354.186C1437.12 355.396 1435.49 355.629 1434.28 354.699C1433.07 353.769 1432.84 352.136 1433.77 350.926C1434.7 349.715 1436.33 349.482 1437.54 350.412C1438.65 351.332 1438.98 352.975 1438.05 354.186Z" fill="#DEB341"/>
<path d="M1436.14 364.845C1435.21 366.055 1433.58 366.288 1432.37 365.358C1431.16 364.428 1430.93 362.795 1431.86 361.585C1432.79 360.374 1434.42 360.142 1435.63 361.072C1436.75 361.892 1437.07 363.634 1436.14 364.845Z" fill="#DEB341"/>
<path d="M1443.41 346.196C1442.83 346.94 1441.7 347.125 1440.96 346.545C1440.21 345.965 1440.03 344.84 1440.61 344.096C1441.19 343.352 1442.31 343.167 1443.06 343.747C1443.8 344.327 1443.99 345.452 1443.41 346.196Z" fill="#DEB341"/>
<path d="M1445.13 366.382C1444.2 367.592 1442.57 367.825 1441.36 366.895C1440.15 365.965 1439.92 364.332 1440.84 363.122C1441.77 361.911 1443.41 361.679 1444.62 362.609C1445.84 363.439 1446.06 365.171 1445.13 366.382Z" fill="#DEB341"/>
<path d="M1399.15 166.263C1400.6 165.811 1402.12 166.673 1402.48 168.117C1402.83 169.561 1402.07 171.09 1400.62 171.443C1399.17 171.895 1397.65 171.034 1397.3 169.59C1396.94 168.146 1397.7 166.716 1399.15 166.263Z" fill="#DEB341"/>
<path d="M1415.02 190.633C1416.47 190.18 1417.99 191.042 1418.35 192.486C1418.8 193.94 1417.94 195.46 1416.49 195.812C1415.04 196.265 1413.52 195.403 1413.17 193.959C1412.81 192.515 1413.56 191.085 1415.02 190.633Z" fill="#DEB341"/>
<path d="M1439.52 67.0009C1440.95 66.7476 1442.36 67.6982 1442.6 69.2315C1442.86 70.6653 1441.91 72.0747 1440.37 72.3176C1438.94 72.5709 1437.53 71.6203 1437.29 70.087C1437.13 68.6635 1438.08 67.2542 1439.52 67.0009Z" fill="#DEB341"/>
<path d="M1445.36 60.8488C1446.22 59.6287 1445.92 57.9446 1444.7 57.0872C1443.48 56.2299 1441.8 56.5239 1440.94 57.744C1440.08 58.9641 1440.38 60.6482 1441.6 61.5055C1442.82 62.3629 1444.5 62.0689 1445.36 60.8488Z" fill="#DEB341"/>
<path d="M1425.28 9.5238C1425.53 10.9576 1424.48 12.3567 1423.04 12.61C1421.61 12.8633 1420.21 11.8132 1419.96 10.3793C1419.71 8.94552 1420.76 7.54648 1422.19 7.29318C1423.72 7.05022 1425.02 8.08998 1425.28 9.5238Z" fill="#DEB341"/>
<path d="M1431.6 18.3236C1431.85 19.7574 1430.8 21.1565 1429.37 21.4098C1427.94 21.663 1426.54 20.613 1426.28 19.1791C1426.03 17.7453 1427.08 16.3463 1428.51 16.093C1429.95 15.8397 1431.35 16.8898 1431.6 18.3236Z" fill="#DEB341"/>
<path d="M1428.2 -3.14222C1428.45 -1.7084 1427.4 -0.309357 1425.97 -0.0560642C1424.53 0.197228 1423.14 -0.852857 1422.88 -2.28668C1422.63 -3.7205 1423.68 -5.11954 1425.11 -5.37283C1426.65 -5.6158 1427.95 -4.57605 1428.2 -3.14222Z" fill="#DEB341"/>
<path d="M1416.5 -1.84327C1416.76 -0.409453 1415.71 0.989593 1414.27 1.24289C1412.84 1.49618 1411.44 0.446092 1411.19 -0.987729C1410.93 -2.42155 1411.98 -3.82059 1413.42 -4.07388C1414.95 -4.31685 1416.36 -3.36623 1416.5 -1.84327Z" fill="#DEB341"/>
<path d="M1437.58 10.0972C1437.84 11.531 1436.79 12.93 1435.35 13.1833C1433.92 13.4366 1432.52 12.3865 1432.27 10.9527C1432.01 9.51889 1433.06 8.11984 1434.5 7.86655C1436.03 7.62358 1437.34 8.56388 1437.58 10.0972Z" fill="#DEB341"/>
<path d="M1436.85 34.5528C1437.21 35.9969 1436.34 37.5161 1434.9 37.8688C1433.46 38.2216 1431.94 37.3601 1431.58 35.916C1431.23 34.4718 1432.09 32.9527 1433.54 32.5999C1434.98 32.2471 1436.4 33.0983 1436.85 34.5528Z" fill="#DEB341"/>
<path d="M1443.65 27.2149C1444 28.659 1443.14 30.1782 1441.69 30.531C1440.25 30.8837 1438.73 30.0222 1438.38 28.5781C1438.03 27.1339 1438.89 25.6148 1440.33 25.262C1441.77 24.9093 1443.29 25.7707 1443.65 27.2149Z" fill="#DEB341"/>
<path d="M1445.18 -1.07868C1445.85 0.197513 1445.37 1.85745 1444.09 2.62872C1442.8 3.39999 1441.15 2.82658 1440.38 1.54006C1439.61 0.253534 1440.18 -1.39607 1441.47 -2.16734C1442.85 -2.82882 1444.51 -2.35488 1445.18 -1.07868Z" fill="#DEB341"/>
</g>
<defs>
<clipPath id="clip0_3738_16400">
<rect width="285" height="526" fill="white" transform="translate(-143 716)"/>
</clipPath>
<clipPath id="clip1_3738_16400">
<rect width="244.7" height="525.9" fill="white" transform="translate(1345.31 -115) rotate(5.92714)"/>
</clipPath>
</defs>
</svg>
