<svg width="272" height="100" viewBox="0 0 272 100" fill="none" xmlns="http://www.w3.org/2000/svg">
<path d="M167.133 61.7765H167.011H167.799H167.754C166.523 61.7765 165.485 61.3505 164.637 60.5039C163.794 59.6519 163.366 58.6117 163.366 57.389C163.366 56.1662 163.794 55.1205 164.637 54.2685C165.48 53.4219 166.523 52.9959 167.754 52.9959H169.596C171.016 52.9959 172.292 53.3943 173.435 54.1965C174.572 54.9988 175.37 56.0611 175.831 57.389C176.086 56.631 176.219 55.9006 176.219 55.2035C176.219 53.3611 175.576 51.8008 174.294 50.5228C173.013 49.2447 171.449 48.6084 169.601 48.6084H166.989C165.286 48.6084 163.233 49.4605 161.53 51.1701C159.827 52.8797 158.973 54.9545 158.973 57.3945C158.973 59.8345 159.827 61.8927 161.541 63.6078C163.25 65.323 165.325 66.1751 167.76 66.1751H167.804H167.017H167.061C168.292 66.1751 170.4 66.6011 171.249 67.4532C172.092 68.3052 172.514 69.3454 172.514 70.5737C172.514 71.8019 172.092 72.8421 171.249 73.6942C170.406 74.5462 168.292 74.9667 167.061 74.9667H165.591C164.171 74.9667 162.895 74.5683 161.758 73.7716C160.621 72.9694 159.822 71.9071 159.361 70.5792C159.106 71.3372 158.973 72.062 158.973 72.7646C158.973 74.6126 159.617 76.1673 160.898 77.4509C162.179 78.729 163.744 79.3708 165.591 79.3708H169.735C171.171 79.3708 172.658 78.5188 174.361 76.8091C176.064 75.0995 176.918 73.0247 176.918 70.5792C176.918 68.1337 176.064 66.081 174.35 64.3603C172.658 62.6673 169.54 61.8152 167.139 61.7931L167.133 61.7765Z" fill="white"/>
<path d="M196.579 70.558C196.834 71.316 196.967 72.0464 196.967 72.7435C196.967 74.5859 196.324 76.1462 195.042 77.4298C193.761 78.7079 192.197 79.3497 190.349 79.3497H188.147C185.701 79.3497 183.615 78.4976 181.907 76.788C180.193 75.0783 179.338 73.0035 179.338 70.558V57.3567C179.338 54.9168 180.193 52.842 181.907 51.1434C183.615 49.4448 185.701 48.5928 188.147 48.5928C190.594 48.5928 192.657 49.4448 194.377 51.1545C196.096 52.8641 196.956 54.9278 196.956 57.3567V62.4801V66.8732H183.737V70.558C183.737 71.8029 184.159 72.8431 185.008 73.6841C185.851 74.5306 186.899 74.9511 188.142 74.9511H190.344C191.764 74.9511 193.04 74.5527 194.183 73.7505C195.32 72.9482 196.118 71.8859 196.579 70.558ZM183.737 62.4801H192.546V57.3567C192.546 56.1285 192.119 55.0938 191.27 54.2528C190.416 53.4119 189.373 52.9858 188.142 52.9858C186.91 52.9858 185.867 53.4063 185.013 54.2528C184.164 55.0938 183.737 56.1285 183.737 57.3567V62.4801Z" fill="white"/>
<path d="M243.04 78.9546C242.28 79.2091 241.548 79.3419 240.849 79.3419C238.802 79.3419 237.121 78.5562 235.823 76.9849C234.104 78.5562 232.112 79.3419 229.849 79.3419C227.403 79.3419 225.317 78.4898 223.608 76.7802C221.9 75.0705 221.04 72.9957 221.04 70.5502V57.3489C221.04 54.909 221.894 52.8342 223.608 51.1356C225.322 49.437 227.403 48.585 229.849 48.585C232.295 48.585 234.359 49.437 236.078 51.1467C237.798 52.8563 238.658 54.92 238.658 57.3489V72.7357C238.658 74.1521 239.057 75.4302 239.85 76.5644C240.644 77.6986 241.709 78.4953 243.04 78.9546ZM234.253 57.3545C234.253 56.1262 233.826 55.0915 232.978 54.2506C232.123 53.4096 231.08 52.9835 229.849 52.9835C228.617 52.9835 227.575 53.404 226.726 54.2506C225.872 55.0915 225.45 56.1262 225.45 57.3545V70.5557C225.45 71.8006 225.872 72.8408 226.715 73.6818C227.558 74.5283 228.606 74.9488 229.849 74.9488C231.091 74.9488 232.123 74.5283 232.978 73.6763C233.826 72.8242 234.253 71.784 234.253 70.5557V57.3545Z" fill="white"/>
<path d="M213.001 48.5928V70.558C213.001 71.7863 212.573 72.8265 211.719 73.6785C210.865 74.5306 209.822 74.9511 208.591 74.9511C207.359 74.9511 206.3 74.5306 205.456 73.6841C204.613 72.8431 204.186 71.8029 204.186 70.558V50.7782V48.5928H199.782V70.558C199.782 72.998 200.636 75.0728 202.35 76.788C204.059 78.4921 206.139 79.3497 208.591 79.3497C210.166 79.3497 211.636 78.9513 212.995 78.149V84.5173C212.995 85.9171 212.59 87.1841 211.78 88.3128C210.97 89.436 209.905 90.2438 208.591 90.7362C209.334 90.9907 210.066 91.1235 210.782 91.1235C212.618 91.1235 214.177 90.4761 215.469 89.1925C216.756 87.9034 217.405 86.3487 217.405 84.5173V48.5983H213.001V48.5928Z" fill="white"/>
<path d="M231.987 21.5151C233.202 21.5151 234.19 20.5358 234.19 19.3186C234.19 18.1014 233.202 17.1221 231.987 17.1221C230.773 17.1221 229.785 18.1069 229.785 19.3186C229.785 20.5303 230.773 21.5151 231.987 21.5151Z" fill="white"/>
<path d="M235.452 41.552C234.648 40.4177 234.249 39.1563 234.249 37.7675V25.6175H229.844V35.5765C229.844 36.8103 229.417 37.8394 228.568 38.686C227.714 39.527 226.677 39.9474 225.44 39.9474C224.203 39.9474 223.165 39.527 222.311 38.686C221.468 37.8505 221.041 36.8269 221.035 35.6097C221.035 35.5765 221.035 35.5544 221.035 35.5212V27.8251C221.035 27.7919 221.035 27.7642 221.035 27.7365V25.6175H216.631V29.7615V35.6153C216.609 36.8048 216.187 37.8118 215.355 38.6306C214.501 39.4772 213.458 39.8977 212.226 39.8977C210.995 39.8977 209.958 39.4772 209.109 38.6306C208.26 37.7896 207.839 36.755 207.839 35.5267V25.623H203.418V27.7697C203.418 27.7697 203.418 27.814 203.418 27.8306V35.5267C203.418 36.755 202.99 37.7896 202.136 38.6306C201.287 39.4716 200.25 39.8921 199.019 39.8977C197.787 39.8977 196.755 39.4772 195.901 38.6306C195.358 38.094 194.986 37.4798 194.792 36.7771C194.681 36.3843 194.625 35.9694 194.625 35.5212V27.9302V27.8306C194.625 27.8306 194.625 27.8306 194.625 27.8251C194.625 27.8195 194.625 27.814 194.625 27.8085V25.6175H190.215V29.7615V35.571C190.204 36.7771 189.777 37.8007 188.939 38.6306C188.712 38.8519 187.309 39.6487 185.339 39.8202C179.881 40.2739 174.539 39.8977 173.629 39.8977C172.398 39.8977 171.355 39.4772 170.501 38.6306C169.73 37.8671 169.314 36.9431 169.242 35.8587V35.5821C169.242 35.5821 169.242 32.0577 169.242 29.7671V27.8472C169.242 27.8472 169.242 27.8361 169.242 27.8306C169.242 27.814 169.242 27.7974 169.242 27.7808V25.623H164.832V27.648C164.832 27.7144 164.821 27.7697 164.821 27.8306V35.831C164.782 36.672 164.538 37.419 164.088 38.0718C163.939 38.2821 163.767 38.4868 163.572 38.6804C163.572 38.6804 163.572 38.6804 163.567 38.6915C163.09 39.1673 162.552 39.5048 161.953 39.7095C161.753 39.7815 161.548 39.8313 161.331 39.8755C161.048 39.9253 160.749 39.953 160.444 39.953C160.288 39.953 160.139 39.9474 159.989 39.9309C159.728 39.9087 155.052 39.8645 154.808 39.8036C154.087 39.6099 153.443 39.2392 152.889 38.6915C152.034 37.845 151.607 36.8103 151.607 35.5821L151.635 14.7234C151.635 12.8975 150.975 11.3317 149.649 10.0371C148.323 8.74792 146.742 8.10059 144.912 8.10059C144.168 8.10059 143.436 8.22231 142.721 8.46575C144.069 8.95264 145.156 9.7549 145.988 10.8781C146.82 11.9957 147.236 13.2682 147.236 14.6791L147.208 35.5821C147.208 38.011 148.068 40.0802 149.788 41.7843C149.871 41.8673 149.96 41.9393 150.043 42.0167C150.526 42.4593 151.03 42.8411 151.563 43.162C152.423 43.671 153.349 44.0251 154.348 44.2022C154.392 44.2132 154.436 44.2132 154.481 44.2243C154.703 44.263 154.93 44.2907 155.157 44.3184C155.418 44.3405 160.117 44.3516 160.388 44.3516C160.388 44.3128 160.377 44.2796 160.377 44.2409C160.377 42.5977 161.714 41.2643 163.362 41.2643C164.377 41.2643 165.27 41.7733 165.808 42.5479C166.019 42.3874 166.224 42.2159 166.424 42.0278C166.507 41.9503 166.596 41.8784 166.673 41.7954C166.79 41.6792 166.895 41.563 167.001 41.4413H167.006C167.411 41.8507 167.855 42.2214 168.321 42.5534C168.859 41.7788 169.757 41.2643 170.773 41.2643C172.42 41.2643 173.757 42.5977 173.757 44.2409C173.757 44.263 173.757 44.2796 173.751 44.3018C175.277 44.3018 186.643 44.2686 187.026 44.2188C189.128 43.9532 190.925 42.996 192.412 41.3251C192.484 41.4081 192.612 41.5464 192.8 41.729C192.884 41.812 192.972 41.8839 193.055 41.9669C194.498 43.328 196.206 44.0971 198.181 44.263C198.253 44.2686 198.325 44.2686 198.397 44.2741C198.597 44.2852 198.802 44.3018 199.008 44.3018H199.03C199.113 44.3018 199.196 44.2907 199.285 44.2907C199.501 44.2907 199.718 44.2796 199.928 44.263C200.134 44.2409 200.333 44.2077 200.533 44.1745C200.622 44.1579 200.711 44.1524 200.799 44.1303C201.021 44.0915 201.238 44.0307 201.454 43.9753C201.515 43.9587 201.57 43.9421 201.631 43.9311C201.853 43.8647 202.07 43.7872 202.286 43.7042C202.336 43.6821 202.386 43.6655 202.436 43.6489C202.646 43.5604 202.852 43.4608 203.051 43.3557C203.107 43.328 203.162 43.3003 203.218 43.2671C203.401 43.1675 203.584 43.0514 203.761 42.9352C203.839 42.8854 203.911 42.8356 203.989 42.7802C204.139 42.6807 204.283 42.57 204.427 42.4538C204.549 42.3598 204.666 42.2602 204.782 42.155C204.871 42.0776 204.96 42.0001 205.043 41.9171C205.109 41.8563 205.176 41.8009 205.243 41.7345C205.376 41.6018 205.492 41.469 205.614 41.3307C205.614 41.3307 205.62 41.3251 205.625 41.3196C205.697 41.4026 205.825 41.5409 206.014 41.7235C207.705 43.4387 209.775 44.2962 212.221 44.2962C214.667 44.2962 216.731 43.4442 218.45 41.7345C218.572 41.6073 218.683 41.48 218.794 41.3583C218.927 41.5022 219.055 41.6516 219.194 41.7899C220.913 43.4995 222.988 44.3516 225.423 44.3516C227.714 44.3516 229.705 43.5714 231.397 42.0112C232.729 43.5714 234.398 44.3516 236.406 44.3516C237.177 44.3516 237.91 44.2188 238.598 43.9643C237.294 43.494 236.24 42.6862 235.441 41.552H235.452Z" fill="white"/>
<path d="M145.225 28.1436H145.236C145.236 28.1049 145.225 28.0717 145.225 28.0329C145.225 27.95 145.225 27.8448 145.225 27.7729C145.225 27.7729 145.202 27.6844 145.191 27.6346C145.075 26.0301 144.448 24.6303 143.255 23.4629C141.93 22.1737 140.349 21.5264 138.518 21.5264C137.775 21.5264 137.043 21.6481 136.327 21.8915C137.675 22.3784 138.751 23.1917 139.594 24.3038C141.469 26.7825 141.025 29.0897 141.009 29.5766C140.731 34.5727 140.593 39.4803 130.885 39.6463L126.947 39.4195C120.651 38.6891 120.717 28.0108 120.185 26.4893C119.924 27.2971 118.143 37.1068 121.899 42.1416C123.125 43.7849 125.005 44.3824 126.997 44.3824H137.414C138.474 44.3824 139.639 43.9508 140.681 43.2758C140.748 43.2371 140.815 43.2205 140.876 43.1818C140.953 43.1375 141.02 43.0656 141.092 43.0213C141.153 42.9771 141.208 42.9328 141.264 42.8885C141.652 42.6285 142.041 42.3685 142.396 42.0365C142.479 41.959 142.567 41.8871 142.651 41.8041C144.37 40.1 145.23 38.0307 145.23 35.6018C145.319 34.2297 145.252 30.1078 145.23 28.1436H145.225Z" fill="white"/>
<path d="M170.893 42.4082C170.067 42.4082 169.346 42.8176 168.907 43.4484C168.635 43.8412 168.475 44.3115 168.475 44.8205C168.475 46.1484 169.556 47.2273 170.893 47.2273C172.23 47.2273 173.273 46.176 173.301 44.8703C173.301 44.8537 173.301 44.8371 173.301 44.826C173.301 43.4982 172.219 42.4193 170.888 42.4193L170.893 42.4082Z" fill="white"/>
<path d="M163.587 42.3981C162.256 42.3981 161.174 43.477 161.174 44.8049C161.174 44.8381 161.18 44.8657 161.18 44.8934C161.23 46.177 162.284 47.2061 163.587 47.2061C164.891 47.2061 166 46.1272 166 44.7993C166 44.2903 165.839 43.82 165.568 43.4272C165.129 42.802 164.408 42.3926 163.587 42.3926V42.3981Z" fill="white"/>
<path d="M242.655 33.1657C243.321 32.3358 244.175 31.9264 245.212 31.9264C245.501 31.9264 245.828 31.9872 246.188 32.109C246.56 31.5723 246.749 31.102 246.749 30.7036C246.749 30.1891 246.383 29.9346 245.645 29.9346C244.452 29.9346 243.504 30.3661 242.799 31.2182C241.912 32.2528 241.468 33.1713 241.468 33.9735C241.468 34.9528 241.995 35.5614 243.049 35.7993C242.366 36.5297 241.961 37.426 241.823 38.4772C243.071 37.0221 244.713 36.159 246.749 35.8823L247.52 33.9348C246.76 34.1838 246.177 34.3055 245.772 34.3055C244.524 34.3055 243.487 33.9237 242.655 33.1602V33.1657Z" fill="white"/>
<path d="M154.309 49.154C152.623 47.4499 150.581 46.5923 148.196 46.5923C145.944 46.5923 143.991 47.3725 142.333 48.9272C141.023 47.3725 139.387 46.0391 137.418 46.0391C136.658 46.0391 135.942 46.1663 135.265 46.4264C136.547 46.8967 137.579 47.7044 138.366 48.8387C139.154 49.9729 139.548 51.7877 139.548 53.1709V72.5689H139.531C139.442 74.0461 137.229 75.2191 135.071 75.2191C132.803 75.2191 130.412 74.0461 130.323 72.5689H130.312V59.611V56.5127C129.985 56.225 126.201 55.6551 126.64 51.4391C126.201 52.02 125.869 52.6784 125.647 53.4198C125.148 55.0797 125.342 56.4905 126.096 58.0065L125.991 60.6346V72.082C125.991 72.1871 125.974 72.2978 125.974 72.4084C125.974 76.392 129.202 79.6232 135.077 79.6232C140.951 79.6232 143.886 76.392 143.886 72.4084C143.886 72.3254 143.875 72.2424 143.875 72.165V55.3563C143.875 54.128 144.291 53.0934 145.128 52.2524C145.966 51.4114 146.987 50.9854 148.201 50.9854C149.416 50.9854 150.431 51.4059 151.269 52.2524C152.107 53.0934 152.523 54.128 152.523 55.3563V79.341H156.844V55.3563C156.844 52.9274 156.001 50.8581 154.314 49.154H154.309Z" fill="white"/>
<path d="M260.005 57.4067V70.5526C260.005 72.9926 259.157 75.0674 257.443 76.7826C255.728 78.4867 253.654 79.3443 251.202 79.3443C248.75 79.3443 246.67 78.4922 244.956 76.7826C243.242 75.0729 242.376 72.9981 242.376 70.5526V39.9064C243.93 38.999 245.488 38.999 247.042 39.6685V49.8267C248.079 49.0411 249.732 48.6482 251.324 48.6482C253.759 48.6482 255.712 49.5003 257.437 51.2099C259.157 52.9196 260.005 54.9833 260.005 57.4122V57.4067ZM255.34 57.4067C255.34 56.1784 255.085 55.1437 254.231 54.3028C253.376 53.4618 252.506 53.0358 251.274 53.0358C250.043 53.0358 249.061 53.4562 248.207 54.3028C247.352 55.1437 247.047 56.1784 247.047 57.4067V70.5526C247.047 71.7975 247.319 72.8377 248.162 73.6787C249.005 74.5252 249.898 74.9457 251.146 74.9457C252.395 74.9457 253.354 74.5252 254.203 73.6731C255.057 72.8211 255.34 71.7809 255.34 70.5526V57.4067ZM247.047 27.5959V14.4721C247.047 13.0723 247.33 11.8108 248.134 10.6766C248.933 9.54786 249.943 8.74007 251.274 8.25872C250.559 8.01528 249.799 7.89355 249.055 7.89355C247.219 7.89355 245.633 8.52983 244.346 9.80791C243.053 11.086 242.382 12.6407 242.382 14.4665V28.3539C243.935 28.7633 245.494 28.5475 247.047 27.5848V27.5959Z" fill="white"/>
<path d="M95.4047 75.7237C95.4047 77.4112 94.029 78.7833 92.3371 78.7833C90.6452 78.7833 89.2695 77.4112 89.2695 75.7237C89.2695 74.0362 90.6452 72.6641 92.3371 72.6641C94.029 72.6641 95.4047 74.0307 95.4047 75.7237Z" fill="#DEB341"/>
<path d="M101.874 75.7237C101.874 77.4112 100.499 78.7833 98.8068 78.7833C97.1149 78.7833 95.7393 77.4112 95.7393 75.7237C95.7393 74.0362 97.1094 72.6641 98.8068 72.6641C100.504 72.6641 101.874 74.0307 101.874 75.7237Z" fill="#DEB341"/>
<path d="M108.329 75.7237C108.329 77.4112 106.953 78.7833 105.261 78.7833C103.569 78.7833 102.193 77.4112 102.193 75.7237C102.193 74.0362 103.569 72.6641 105.261 72.6641C106.953 72.6641 108.329 74.0307 108.329 75.7237Z" fill="#DEB341"/>
<path d="M114.814 75.7237C114.814 77.4112 113.439 78.7833 111.747 78.7833C110.055 78.7833 108.679 77.4112 108.679 75.7237C108.679 74.0362 110.055 72.6641 111.747 72.6641C113.439 72.6641 114.814 74.0307 114.814 75.7237Z" fill="#DEB341"/>
<path d="M95.4047 69.6046C95.4047 71.2921 94.029 72.6642 92.3371 72.6642C90.6452 72.6642 89.2695 71.2921 89.2695 69.6046C89.2695 67.9171 90.6452 66.5449 92.3371 66.5449C94.029 66.5449 95.4047 67.9171 95.4047 69.6046Z" fill="#DEB341"/>
<path d="M101.874 69.6046C101.874 71.2921 100.499 72.6642 98.8068 72.6642C97.1149 72.6642 95.7393 71.2921 95.7393 69.6046C95.7393 67.9171 97.1094 66.5449 98.8068 66.5449C100.504 66.5449 101.874 67.9171 101.874 69.6046Z" fill="#DEB341"/>
<path d="M108.668 69.6046C108.668 71.2921 107.298 72.6642 105.606 72.6642C103.914 72.6642 102.538 71.2921 102.538 69.6046C102.538 67.9171 103.914 66.5449 105.606 66.5449C107.298 66.5449 108.668 67.9171 108.668 69.6046Z" fill="#DEB341"/>
<path d="M115.582 69.6046C115.582 71.2921 114.206 72.6642 112.514 72.6642C110.822 72.6642 109.447 71.2921 109.447 69.6046C109.447 67.9171 110.822 66.5449 112.514 66.5449C114.206 66.5449 115.582 67.9171 115.582 69.6046Z" fill="#DEB341"/>
<path d="M98.4984 63.4887C98.4984 65.1817 97.1227 66.5483 95.4309 66.5483C93.739 66.5483 92.3633 65.1817 92.3633 63.4887C92.3633 61.7956 93.739 60.4346 95.4309 60.4346C97.1227 60.4346 98.4984 61.8012 98.4984 63.4887Z" fill="#DEB341"/>
<path d="M104.953 63.4887C104.953 65.1817 103.577 66.5483 101.885 66.5483C100.193 66.5483 98.8174 65.1817 98.8174 63.4887C98.8174 61.7956 100.193 60.4346 101.885 60.4346C103.577 60.4346 104.953 61.8012 104.953 63.4887Z" fill="#DEB341"/>
<path d="M111.417 63.4887C111.417 65.1817 110.047 66.5483 108.355 66.5483C106.663 66.5483 105.287 65.1817 105.287 63.4887C105.287 61.7956 106.663 60.4346 108.355 60.4346C110.047 60.4346 111.417 61.8012 111.417 63.4887Z" fill="#DEB341"/>
<path d="M117.892 63.4887C117.892 65.1817 116.517 66.5483 114.825 66.5483C113.133 66.5483 111.757 65.1817 111.757 63.4887C111.757 61.7956 113.133 60.4346 114.825 60.4346C116.517 60.4346 117.892 61.8012 117.892 63.4887Z" fill="#DEB341"/>
<path d="M95.4047 57.3754C95.4047 59.0629 94.029 60.435 92.3371 60.435C90.6452 60.435 89.2695 59.0629 89.2695 57.3754C89.2695 55.6879 90.6452 54.3213 92.3371 54.3213C94.029 54.3213 95.4047 55.6879 95.4047 57.3754Z" fill="#DEB341"/>
<path d="M101.874 57.3754C101.874 59.0629 100.499 60.435 98.8068 60.435C97.1149 60.435 95.7393 59.0629 95.7393 57.3754C95.7393 55.6879 97.1094 54.3213 98.8068 54.3213C100.504 54.3213 101.874 55.6879 101.874 57.3754Z" fill="#DEB341"/>
<path d="M108.329 57.3754C108.329 59.0629 106.953 60.435 105.261 60.435C103.569 60.435 102.193 59.0629 102.193 57.3754C102.193 55.6879 103.569 54.3213 105.261 54.3213C106.953 54.3213 108.329 55.6879 108.329 57.3754Z" fill="#DEB341"/>
<path d="M114.814 57.3754C114.814 59.0629 113.439 60.435 111.747 60.435C110.055 60.435 108.679 59.0629 108.679 57.3754C108.679 55.6879 110.055 54.3213 111.747 54.3213C113.439 54.3213 114.814 55.6879 114.814 57.3754Z" fill="#DEB341"/>
<path d="M96.5248 51.252C96.5248 52.9451 95.1546 54.3117 93.4572 54.3117C91.7598 54.3117 90.3896 52.9395 90.3896 51.252C90.3896 49.5645 91.7653 48.1924 93.4572 48.1924C95.1491 48.1924 96.5248 49.559 96.5248 51.252Z" fill="#DEB341"/>
<path d="M103.888 51.252C103.888 52.9451 102.512 54.3117 100.82 54.3117C99.1281 54.3117 97.7524 52.9395 97.7524 51.252C97.7524 49.5645 99.1281 48.1924 100.82 48.1924C102.512 48.1924 103.888 49.559 103.888 51.252Z" fill="#DEB341"/>
<path d="M110.493 51.252C110.493 52.9451 109.117 54.3117 107.431 54.3117C105.745 54.3117 104.363 52.9395 104.363 51.252C104.363 49.5645 105.739 48.1924 107.431 48.1924C109.123 48.1924 110.493 49.559 110.493 51.252Z" fill="#DEB341"/>
<path d="M117.109 51.252C117.109 52.9451 115.734 54.3117 114.042 54.3117C112.35 54.3117 110.974 52.9395 110.974 51.252C110.974 49.5645 112.35 48.1924 114.042 48.1924C115.734 48.1924 117.109 49.559 117.109 51.252Z" fill="#DEB341"/>
<path d="M100.809 45.1387C100.809 46.8263 99.4338 48.1984 97.7419 48.1984C96.05 48.1984 94.6743 46.8263 94.6743 45.1387C94.6743 43.4512 96.05 42.0791 97.7419 42.0791C99.4338 42.0791 100.809 43.4512 100.809 45.1387Z" fill="#DEB341"/>
<path d="M107.42 45.1387C107.42 46.8263 106.045 48.1984 104.353 48.1984C102.661 48.1984 101.285 46.8263 101.285 45.1387C101.285 43.4512 102.661 42.0791 104.353 42.0791C106.045 42.0791 107.42 43.4512 107.42 45.1387Z" fill="#DEB341"/>
<path d="M114.031 45.1387C114.031 46.8263 112.655 48.1984 110.964 48.1984C109.272 48.1984 107.896 46.8263 107.896 45.1387C107.896 43.4512 109.272 42.0791 110.964 42.0791C112.655 42.0791 114.031 43.4512 114.031 45.1387Z" fill="#DEB341"/>
<path d="M120.94 45.1387C120.94 46.8263 119.564 48.1984 117.872 48.1984C116.18 48.1984 114.805 46.8263 114.805 45.1387C114.805 43.4512 116.18 42.0791 117.872 42.0791C119.564 42.0791 120.94 43.4512 120.94 45.1387Z" fill="#DEB341"/>
<path d="M124.01 51.2637C124.01 52.9513 122.634 54.3234 120.943 54.3234C119.251 54.3234 117.875 52.9513 117.875 51.2637C117.875 49.5762 119.251 48.2041 120.943 48.2041C122.634 48.2041 124.01 49.5707 124.01 51.2637Z" fill="#DEB341"/>
<path d="M121.598 57.6241C121.598 59.3116 120.222 60.6837 118.53 60.6837C116.838 60.6837 115.462 59.3116 115.462 57.6241C115.462 55.9366 116.838 54.5645 118.53 54.5645C120.222 54.5645 121.598 55.9311 121.598 57.6241Z" fill="#DEB341"/>
<path d="M97.7465 39.0196C97.7465 40.7016 96.3763 42.0737 94.6789 42.0737C92.9815 42.0737 91.6113 40.7016 91.6113 39.0196C91.6113 37.3376 92.987 35.96 94.6789 35.96C96.3708 35.96 97.7465 37.3266 97.7465 39.0196Z" fill="#DEB341"/>
<path d="M104.357 39.0196C104.357 40.7016 102.982 42.0737 101.29 42.0737C99.5979 42.0737 98.2222 40.7016 98.2222 39.0196C98.2222 37.3376 99.5923 35.96 101.29 35.96C102.987 35.96 104.357 37.3266 104.357 39.0196Z" fill="#DEB341"/>
<path d="M111.407 39.0196C111.407 40.7016 110.031 42.0737 108.339 42.0737C106.647 42.0737 105.271 40.7016 105.271 39.0196C105.271 37.3376 106.642 35.96 108.339 35.96C110.036 35.96 111.407 37.3266 111.407 39.0196Z" fill="#DEB341"/>
<path d="M117.892 39.0196C117.892 40.7016 116.517 42.0737 114.825 42.0737C113.133 42.0737 111.757 40.7016 111.757 39.0196C111.757 37.3376 113.133 35.96 114.825 35.96C116.517 35.96 117.892 37.3266 117.892 39.0196Z" fill="#DEB341"/>
<path d="M95.4203 32.894C95.4203 34.587 94.0446 35.9536 92.3527 35.9536C90.6608 35.9536 89.2852 34.5815 89.2852 32.894C89.2852 31.2064 90.6608 29.8398 92.3527 29.8398C94.0446 29.8398 95.4203 31.212 95.4203 32.894Z" fill="#DEB341"/>
<path d="M86.7103 32.894C86.7103 34.587 85.3346 35.9536 83.6428 35.9536C81.9509 35.9536 80.5752 34.5815 80.5752 32.894C80.5752 31.2064 81.9509 29.8398 83.6428 29.8398C85.3346 29.8398 86.7103 31.212 86.7103 32.894Z" fill="#DEB341"/>
<path d="M102.219 32.894C102.219 34.587 100.843 35.9536 99.1516 35.9536C97.4597 35.9536 96.084 34.5815 96.084 32.894C96.084 31.2064 97.4597 29.8398 99.1516 29.8398C100.843 29.8398 102.219 31.212 102.219 32.894Z" fill="#DEB341"/>
<path d="M109.456 32.894C109.456 34.587 108.081 35.9536 106.389 35.9536C104.697 35.9536 103.321 34.5815 103.321 32.894C103.321 31.2064 104.697 29.8398 106.389 29.8398C108.081 29.8398 109.456 31.212 109.456 32.894Z" fill="#DEB341"/>
<path d="M116.193 32.894C116.193 34.587 114.817 35.9536 113.125 35.9536C111.433 35.9536 110.058 34.5815 110.058 32.894C110.058 31.2064 111.433 29.8398 113.125 29.8398C114.817 29.8398 116.193 31.212 116.193 32.894Z" fill="#DEB341"/>
<path d="M88.2142 26.7764C88.2142 28.4639 86.8441 29.8306 85.1467 29.8306C83.4492 29.8306 82.0791 28.4639 82.0791 26.7764C82.0791 25.0889 83.4548 23.7168 85.1467 23.7168C86.8385 23.7168 88.2142 25.0889 88.2142 26.7764Z" fill="#DEB341"/>
<path d="M101.874 26.7764C101.874 28.4639 100.499 29.8306 98.8068 29.8306C97.1149 29.8306 95.7393 28.4639 95.7393 26.7764C95.7393 25.0889 97.1094 23.7168 98.8068 23.7168C100.504 23.7168 101.874 25.0889 101.874 26.7764Z" fill="#DEB341"/>
<path d="M108.345 26.7764C108.345 28.4639 106.969 29.8306 105.277 29.8306C103.585 29.8306 102.209 28.4639 102.209 26.7764C102.209 25.0889 103.585 23.7168 105.277 23.7168C106.969 23.7168 108.345 25.0889 108.345 26.7764Z" fill="#DEB341"/>
<path d="M114.814 26.7764C114.814 28.4639 113.439 29.8306 111.747 29.8306C110.055 29.8306 108.679 28.4639 108.679 26.7764C108.679 25.0889 110.055 23.7168 111.747 23.7168C113.439 23.7168 114.814 25.0889 114.814 26.7764Z" fill="#DEB341"/>
<path d="M88.2142 20.6615C88.2142 22.3546 86.8441 23.7212 85.1467 23.7212C83.4492 23.7212 82.0791 22.3546 82.0791 20.6615C82.0791 18.9685 83.4548 17.6074 85.1467 17.6074C86.8385 17.6074 88.2142 18.974 88.2142 20.6615Z" fill="#DEB341"/>
<path d="M95.4203 26.7764C95.4203 28.4639 94.0446 29.8306 92.3527 29.8306C90.6608 29.8306 89.2852 28.4639 89.2852 26.7764C89.2852 25.0889 90.6608 23.7168 92.3527 23.7168C94.0446 23.7168 95.4203 25.0889 95.4203 26.7764Z" fill="#DEB341"/>
<path d="M95.4203 20.6615C95.4203 22.3546 94.0446 23.7212 92.3527 23.7212C90.6608 23.7212 89.2852 22.3546 89.2852 20.6615C89.2852 18.9685 90.6608 17.6074 92.3527 17.6074C94.0446 17.6074 95.4203 18.974 95.4203 20.6615Z" fill="#DEB341"/>
<path d="M101.874 20.6615C101.874 22.3546 100.499 23.7212 98.8068 23.7212C97.1149 23.7212 95.7393 22.3546 95.7393 20.6615C95.7393 18.9685 97.1094 17.6074 98.8068 17.6074C100.504 17.6074 101.874 18.974 101.874 20.6615Z" fill="#DEB341"/>
<path d="M108.345 20.6615C108.345 22.3546 106.969 23.7212 105.277 23.7212C103.585 23.7212 102.209 22.3546 102.209 20.6615C102.209 18.9685 103.585 17.6074 105.277 17.6074C106.969 17.6074 108.345 18.974 108.345 20.6615Z" fill="#DEB341"/>
<path d="M114.814 20.6615C114.814 22.3546 113.439 23.7212 111.747 23.7212C110.055 23.7212 108.679 22.3546 108.679 20.6615C108.679 18.9685 110.055 17.6074 111.747 17.6074C113.439 17.6074 114.814 18.974 114.814 20.6615Z" fill="#DEB341"/>
<path d="M79.9979 75.5284C79.9979 77.2104 78.6222 78.5825 76.9304 78.5825C75.2385 78.5825 73.8628 77.2104 73.8628 75.5284C73.8628 73.8464 75.2385 72.4688 76.9304 72.4688C78.6222 72.4688 79.9979 73.8354 79.9979 75.5284Z" fill="#DEB341"/>
<path d="M88.6867 75.5284C88.6867 77.2104 87.311 78.5825 85.6192 78.5825C83.9273 78.5825 82.5571 77.2104 82.5571 75.5284C82.5571 73.8464 83.9273 72.4688 85.6192 72.4688C87.311 72.4688 88.6867 73.8354 88.6867 75.5284Z" fill="#DEB341"/>
<path d="M39.8939 53.1895C39.8939 54.877 38.5238 56.2492 36.8264 56.2492C35.1289 56.2492 33.7588 54.877 33.7588 53.1895C33.7588 51.502 35.1345 50.1299 36.8264 50.1299C38.5182 50.1299 39.8939 51.502 39.8939 53.1895Z" fill="#DEB341"/>
<path d="M69.1047 69.4024C69.1047 71.0955 67.729 72.4621 66.0427 72.4621C64.3563 72.4621 62.9751 71.0955 62.9751 69.4024C62.9751 67.7094 64.3508 66.3428 66.0427 66.3428C67.7345 66.3428 69.1047 67.7149 69.1047 69.4024Z" fill="#DEB341"/>
<path d="M81.7055 67.0294C81.7055 68.7224 80.3298 70.089 78.6379 70.089C76.946 70.089 75.5703 68.7224 75.5703 67.0294C75.5703 65.3363 76.946 63.9697 78.6379 63.9697C80.3298 63.9697 81.7055 65.3419 81.7055 67.0294Z" fill="#DEB341"/>
<path d="M88.6867 69.4024C88.6867 71.0955 87.311 72.4621 85.6192 72.4621C83.9273 72.4621 82.5571 71.0955 82.5571 69.4024C82.5571 67.7094 83.9273 66.3428 85.6192 66.3428C87.311 66.3428 88.6867 67.7149 88.6867 69.4024Z" fill="#DEB341"/>
<path d="M64.6615 60.2328C64.6615 61.9259 63.2858 63.2925 61.5939 63.2925C59.9021 63.2925 58.5264 61.9203 58.5264 60.2328C58.5264 58.5453 59.9021 57.1787 61.5939 57.1787C63.2858 57.1787 64.6615 58.5453 64.6615 60.2328Z" fill="#DEB341"/>
<path d="M83.0526 60.225C83.0526 61.918 81.6769 63.2847 79.985 63.2847C78.2932 63.2847 76.9175 61.918 76.9175 60.225C76.9175 58.532 78.2932 57.1709 79.985 57.1709C81.6769 57.1709 83.0526 58.5375 83.0526 60.225Z" fill="#DEB341"/>
<path d="M91.757 63.2875C91.757 64.9805 90.3813 66.3472 88.6895 66.3472C86.9976 66.3472 85.6274 64.9805 85.6274 63.2875C85.6274 61.5945 87.0031 60.2334 88.6895 60.2334C90.3758 60.2334 91.757 61.6 91.757 63.2875Z" fill="#DEB341"/>
<path d="M73.8724 57.1703C73.8724 58.8578 72.4968 60.23 70.8049 60.23C69.113 60.23 67.7373 58.8578 67.7373 57.1703C67.7373 55.4828 69.113 54.1162 70.8049 54.1162C72.4968 54.1162 73.8724 55.4883 73.8724 57.1703Z" fill="#DEB341"/>
<path d="M64.6615 51.7192C64.6615 53.4067 63.2858 54.7788 61.5939 54.7788C59.9021 54.7788 58.5264 53.4067 58.5264 51.7192C58.5264 50.0316 59.9021 48.665 61.5939 48.665C63.2858 48.665 64.6615 50.0316 64.6615 51.7192Z" fill="#DEB341"/>
<path d="M88.6867 54.7817C88.6867 56.4692 87.311 57.8413 85.6192 57.8413C83.9273 57.8413 82.5571 56.4692 82.5571 54.7817C82.5571 53.0941 83.9273 51.7275 85.6192 51.7275C87.311 51.7275 88.6867 53.0997 88.6867 54.7817Z" fill="#DEB341"/>
<path d="M25.9883 30.7418C26.9535 32.1305 26.5985 34.0394 25.2062 34.9965C23.8083 35.9592 21.9001 35.6051 20.9404 34.2109C19.9752 32.8221 20.3302 30.9133 21.7226 29.9561C23.1205 28.9934 25.0287 29.342 25.9883 30.7363V30.7418Z" fill="#DEB341"/>
<path d="M44.077 43.2413C44.077 44.9343 42.7013 46.3009 41.0095 46.3009C39.3176 46.3009 37.9419 44.9343 37.9419 43.2413C37.9419 41.5482 39.312 40.1816 41.0095 40.1816C42.7069 40.1816 44.077 41.5482 44.077 43.2413Z" fill="#DEB341"/>
<path d="M79.9979 52.5157C79.9979 54.2087 78.6222 55.5753 76.9304 55.5753C75.2385 55.5753 73.8628 54.2032 73.8628 52.5157C73.8628 50.8282 75.2385 49.4561 76.9304 49.4561C78.6222 49.4561 79.9979 50.8227 79.9979 52.5157Z" fill="#DEB341"/>
<path d="M54.8861 44.9337C54.8861 46.6212 53.516 47.9933 51.8185 47.9933C50.1211 47.9933 48.751 46.6212 48.751 44.9337C48.751 43.2462 50.1267 41.874 51.8185 41.874C53.5104 41.874 54.8861 43.2406 54.8861 44.9337Z" fill="#DEB341"/>
<path d="M69.1047 44.9337C69.1047 46.6212 67.729 47.9933 66.0427 47.9933C64.3563 47.9933 62.9751 46.6212 62.9751 44.9337C62.9751 43.2462 64.3508 41.874 66.0427 41.874C67.7345 41.874 69.1047 43.2406 69.1047 44.9337Z" fill="#DEB341"/>
<path d="M54.8806 55.5782C54.8806 57.2657 53.5049 58.6378 51.8185 58.6378C50.1322 58.6378 48.751 57.2657 48.751 55.5782C48.751 53.8907 50.1267 52.5186 51.8185 52.5186C53.5104 52.5186 54.8806 53.8907 54.8806 55.5782Z" fill="#DEB341"/>
<path d="M83.0526 44.9337C83.0526 46.6212 81.6769 47.9933 79.985 47.9933C78.2932 47.9933 76.9175 46.6212 76.9175 44.9337C76.9175 43.2462 78.2932 41.874 79.985 41.874C81.6769 41.874 83.0526 43.2406 83.0526 44.9337Z" fill="#DEB341"/>
<path d="M92.765 45.4581C92.765 47.1456 91.3893 48.5177 89.6975 48.5177C88.0056 48.5177 86.6299 47.1456 86.6299 45.4581C86.6299 43.7706 88.0056 42.3984 89.6975 42.3984C91.3893 42.3984 92.765 43.7706 92.765 45.4581Z" fill="#DEB341"/>
<path d="M74.4677 38.8155C74.4677 40.503 73.092 41.8696 71.4001 41.8696C69.7082 41.8696 68.3325 40.4975 68.3325 38.8155C68.3325 37.1335 69.7082 35.7559 71.4001 35.7559C73.092 35.7559 74.4677 37.1225 74.4677 38.8155Z" fill="#DEB341"/>
<path d="M65.5228 34.2022C65.5228 35.8897 64.1471 37.2563 62.4553 37.2563C60.7634 37.2563 59.3877 35.8897 59.3877 34.2022C59.3877 32.5147 60.7634 31.1426 62.4553 31.1426C64.1471 31.1426 65.5228 32.5147 65.5228 34.2022Z" fill="#DEB341"/>
<path d="M89.7002 38.8376C89.7612 40.5085 88.4077 41.8696 86.7158 41.8696C85.024 41.8696 83.6538 40.4975 83.6538 38.8155C83.6538 37.1335 85.0295 35.7559 86.7158 35.7559C88.3855 35.7614 89.6392 37.1723 89.7002 38.8432V38.8376Z" fill="#DEB341"/>
<path d="M17.3202 19.7299C17.3202 21.4174 15.9445 22.7895 14.2526 22.7895C12.5608 22.7895 11.1851 21.4229 11.1851 19.7299C11.1851 18.0369 12.5608 16.6758 14.2526 16.6758C15.9445 16.6758 17.3202 18.0479 17.3202 19.7299Z" fill="#DEB341"/>
<path d="M79.1517 29.4193C79.1517 31.1068 77.776 32.479 76.0842 32.479C74.3923 32.479 73.0166 31.1068 73.0166 29.4193C73.0166 27.7318 74.3923 26.3652 76.0842 26.3652C77.776 26.3652 79.1517 27.7374 79.1517 29.4193Z" fill="#DEB341"/>
<path d="M35.9944 23.9752C35.9555 25.6627 34.5521 27.0016 32.8547 26.9629C31.1628 26.9242 29.8204 25.5244 29.8592 23.8368C29.8981 22.1438 31.3015 20.8049 32.9934 20.8436C34.6908 20.8823 36.0276 22.2821 35.9888 23.9752H35.9944Z" fill="#DEB341"/>
<path d="M52.6459 32.4796C52.6459 34.1671 51.2757 35.5337 49.5783 35.5337C47.8809 35.5337 46.5107 34.1615 46.5107 32.4796C46.5107 30.7976 47.8809 29.4199 49.5783 29.4199C51.2757 29.4199 52.6459 30.7921 52.6459 32.4796Z" fill="#DEB341"/>
<path d="M65.5228 24.1791C65.5228 25.8666 64.1471 27.2388 62.4553 27.2388C60.7634 27.2388 59.3877 25.8666 59.3877 24.1791C59.3877 22.4916 60.7634 21.125 62.4553 21.125C64.1471 21.125 65.5228 22.4916 65.5228 24.1791Z" fill="#DEB341"/>
<path d="M79.9979 20.4584C79.9979 22.1514 78.6222 23.5181 76.9304 23.5181C75.2385 23.5181 73.8628 22.1514 73.8628 20.4584C73.8628 18.7654 75.2385 17.4043 76.9304 17.4043C78.6222 17.4043 79.9979 18.7764 79.9979 20.4584Z" fill="#DEB341"/>
<path d="M136.015 50.6995C136.015 52.6913 134.389 54.3124 132.392 54.3124C130.395 54.3124 128.77 52.6913 128.77 50.6995C128.77 48.7077 130.395 47.0811 132.392 47.0811C134.389 47.0811 136.015 48.6966 136.015 50.6995Z" fill="#DEB341"/>
<path d="M85.7015 89.2441V82.1787H88.8357C89.0964 82.1787 89.3404 82.223 89.579 82.317C89.812 82.4111 90.0172 82.5439 90.1947 82.7099C90.3722 82.8758 90.5109 83.075 90.6163 83.3074C90.7217 83.5398 90.7716 83.7888 90.7716 84.0599C90.7716 84.3697 90.705 84.6463 90.5775 84.8953C90.4499 85.1443 90.2668 85.349 90.0394 85.515C90.2113 85.6091 90.3556 85.7087 90.4832 85.8082C90.6107 85.9134 90.7161 86.0295 90.7993 86.1568C90.8826 86.2841 90.9491 86.4334 90.9935 86.5939C91.0379 86.7544 91.0545 86.948 91.0545 87.1582C91.0545 87.4349 90.999 87.7005 90.8881 87.9494C90.7772 88.1984 90.6329 88.4197 90.461 88.6134C90.2835 88.807 90.0838 88.9564 89.8619 89.0726C89.64 89.1888 89.4181 89.2441 89.1962 89.2441H85.6904H85.7015ZM86.8553 83.2244V85.1056H88.5361C89.2628 85.1056 89.6234 84.8068 89.6234 84.2093C89.6234 83.8884 89.5013 83.6449 89.2517 83.4734C89.0021 83.3074 88.6581 83.2244 88.2088 83.2244H86.8609H86.8553ZM86.8553 86.1291V88.1984H88.93C89.0853 88.1984 89.2295 88.1707 89.3515 88.1154C89.4791 88.0601 89.5845 87.9882 89.6733 87.8886C89.762 87.789 89.8286 87.6728 89.8785 87.5455C89.9229 87.4128 89.9506 87.2689 89.9506 87.1084C89.9506 86.7433 89.823 86.4888 89.5679 86.3449C89.3127 86.2011 88.9355 86.1291 88.4418 86.1291H86.8553Z" fill="white"/>
<path d="M93.4566 87.1094V87.1205C93.4566 87.3584 93.4954 87.5631 93.5786 87.7346C93.6618 87.9061 93.7672 88.05 93.9003 88.1662C94.0335 88.2824 94.1888 88.3654 94.3552 88.4262C94.5272 88.4816 94.7047 88.5148 94.8877 88.5148C95.0153 88.5148 95.1207 88.5148 95.215 88.5037C95.3093 88.4982 95.3925 88.4816 95.4702 88.4484C95.5478 88.4207 95.6199 88.3764 95.6865 88.3156C95.7531 88.2547 95.8363 88.1717 95.9306 88.0666H97.0844C96.8403 88.5645 96.5408 88.9242 96.1691 89.14C95.803 89.3557 95.3204 89.4664 94.7213 89.4664C94.3774 89.4664 94.0612 89.4111 93.7727 89.3004C93.4843 89.1898 93.2347 89.0182 93.0239 88.7969C92.8131 88.5701 92.6522 88.2879 92.5357 87.9504C92.4192 87.6129 92.3638 87.2145 92.3638 86.7664V86.7C92.3749 86.2408 92.4414 85.8369 92.5746 85.4938C92.7021 85.1453 92.8741 84.8576 93.0904 84.6252C93.3068 84.3928 93.5509 84.2213 93.8338 84.1051C94.1111 83.9889 94.4051 83.9336 94.7158 83.9336H94.8156C95.1762 83.9336 95.4757 83.9889 95.7309 84.094C95.9805 84.1992 96.1857 84.343 96.3466 84.5256C96.5075 84.7082 96.6351 84.9074 96.7238 85.1342C96.8181 85.3611 96.8847 85.5934 96.9346 85.8258C96.979 86.0637 97.0345 86.4953 97.0899 87.126H93.4676L93.4566 87.1094ZM94.6936 84.841C94.5604 84.841 94.4273 84.8686 94.2997 84.924C94.1721 84.9793 94.0501 85.0568 93.9447 85.1674C93.8393 85.2725 93.745 85.4108 93.6673 85.5713C93.5897 85.7318 93.5398 85.9254 93.512 86.1412H95.9306C95.8973 85.7152 95.7864 85.3887 95.6144 85.1729C95.4369 84.9516 95.1595 84.8465 94.7768 84.8465H94.6936V84.841Z" fill="white"/>
<path d="M99.2897 84.0742L100.444 87.5433L101.742 84.0742H102.857L100.56 90.2876C100.499 90.4591 100.416 90.6085 100.316 90.7357C100.216 90.863 100.105 90.9626 99.9776 91.0456C99.8555 91.1286 99.7224 91.1839 99.5837 91.2281C99.4451 91.2669 99.3064 91.289 99.1677 91.289H99.1122C99.0068 91.289 98.907 91.2724 98.8127 91.2337C98.7184 91.2005 98.6241 91.1562 98.5353 91.112V90.105C98.6629 90.1658 98.7683 90.2101 98.8626 90.2378C98.9569 90.2599 99.0401 90.2765 99.1122 90.2765C99.3175 90.2765 99.4728 90.1548 99.5726 89.9169V89.9279L99.8223 89.2031L98.1914 84.0742H99.2842H99.2897Z" fill="white"/>
<path d="M108.233 86.6945C108.233 87.1482 108.177 87.541 108.072 87.884C107.966 88.2271 107.811 88.5148 107.606 88.7527C107.406 88.985 107.157 89.1621 106.863 89.2838C106.569 89.4055 106.236 89.4664 105.864 89.4664C105.121 89.4664 104.544 89.2285 104.133 88.7582C103.723 88.2879 103.518 87.5963 103.518 86.6945C103.518 86.2463 103.573 85.8535 103.678 85.5104C103.784 85.1674 103.939 84.8797 104.144 84.6418C104.344 84.4094 104.594 84.2324 104.882 84.1106C105.171 83.9945 105.503 83.9336 105.87 83.9336C106.236 83.9336 106.574 83.9945 106.868 84.1106C107.162 84.2268 107.406 84.4039 107.611 84.6418C107.811 84.8742 107.966 85.1674 108.077 85.5104C108.183 85.8535 108.238 86.2518 108.238 86.6945H108.233ZM107.168 86.6945C107.168 86.4731 107.14 86.2574 107.084 86.0527C107.029 85.8479 106.946 85.6654 106.84 85.5104C106.735 85.3555 106.596 85.2283 106.435 85.1342C106.275 85.0402 106.086 84.9959 105.87 84.9959C105.681 84.9959 105.509 85.0402 105.354 85.1231C105.198 85.2061 105.065 85.3279 104.949 85.4772C104.838 85.6266 104.749 85.8092 104.688 86.0139C104.627 86.2242 104.594 86.451 104.594 86.6945C104.594 86.9379 104.621 87.1592 104.682 87.3695C104.743 87.5797 104.827 87.7623 104.943 87.9172C105.054 88.0721 105.187 88.1939 105.348 88.2768C105.503 88.3654 105.681 88.4096 105.87 88.4096C106.058 88.4096 106.252 88.3654 106.413 88.2713C106.574 88.1773 106.707 88.0555 106.818 87.9006C106.929 87.7457 107.012 87.5631 107.073 87.3529C107.134 87.1426 107.162 86.9268 107.162 86.6945H107.168Z" fill="white"/>
<path d="M109.643 84.0774H110.641L110.674 84.4979C111.052 84.1217 111.506 83.9336 112.044 83.9336H112.117C112.405 83.9447 112.649 83.9834 112.849 84.0553C113.049 84.1272 113.215 84.2213 113.348 84.3375C113.481 84.4537 113.581 84.5975 113.659 84.758C113.731 84.9184 113.786 85.0955 113.825 85.2781V89.2396H112.766V85.693C112.766 85.433 112.688 85.2393 112.533 85.1065C112.377 84.9738 112.172 84.9074 111.928 84.9074C111.534 84.9074 111.235 85.0402 111.024 85.3113C110.813 85.5824 110.708 85.9807 110.708 86.5063V89.2396H109.648V84.0719L109.643 84.0774Z" fill="white"/>
<path d="M117.006 83.9326C117.3 83.9548 117.566 84.0156 117.805 84.1152C118.043 84.2148 118.238 84.331 118.393 84.4693V82.1787H119.452V89.2552H118.498L118.443 88.9564C118.304 89.0947 118.127 89.2164 117.91 89.316C117.694 89.4156 117.439 89.4654 117.145 89.4654H117.106C116.745 89.4654 116.424 89.4046 116.135 89.2773C115.847 89.1501 115.603 88.973 115.398 88.7296C115.198 88.4917 115.042 88.1984 114.932 87.8498C114.821 87.5013 114.765 87.1029 114.765 86.6492C114.765 86.1955 114.826 85.8248 114.943 85.4818C115.059 85.1443 115.22 84.8566 115.425 84.6298C115.625 84.3974 115.858 84.2259 116.124 84.1097C116.39 83.9935 116.673 83.9326 116.967 83.9326H116.995H117.006ZM116.329 88.049C116.529 88.3201 116.806 88.4585 117.156 88.4585H117.245C117.461 88.4474 117.639 88.3921 117.788 88.2925C117.938 88.1873 118.055 88.0601 118.143 87.8996C118.232 87.7392 118.299 87.5621 118.337 87.3685C118.376 87.1748 118.399 86.9812 118.399 86.782C118.399 86.2453 118.304 85.8248 118.116 85.5095C117.927 85.1996 117.611 85.0281 117.167 85.0004H117.112C116.718 85.0004 116.424 85.1498 116.224 85.4431C116.024 85.7363 115.93 86.1457 115.93 86.6769C115.93 87.208 116.063 87.6783 116.324 88.049H116.329Z" fill="white"/>
<path d="M123.883 89.2441V82.1787H126.662C127.111 82.1787 127.522 82.2672 127.882 82.4388C128.243 82.6103 128.548 82.8537 128.798 83.1636C129.047 83.4734 129.236 83.8441 129.369 84.2757C129.502 84.7072 129.569 85.1775 129.569 85.692C129.569 86.4666 129.419 87.1361 129.13 87.7005C128.842 88.2648 128.431 88.6964 127.904 89.0062C127.616 89.1611 127.366 89.2386 127.145 89.2386H123.888L123.883 89.2441ZM125.037 83.2244V88.1984H126.806C126.912 88.1984 127.017 88.1929 127.111 88.1763C127.206 88.1652 127.3 88.1375 127.389 88.0933C127.477 88.0546 127.561 87.9992 127.649 87.9273C127.733 87.8554 127.821 87.7613 127.91 87.6451C128.021 87.5068 128.11 87.3574 128.171 87.2025C128.232 87.0476 128.282 86.8871 128.315 86.7212C128.348 86.5607 128.37 86.3947 128.387 86.2232C128.398 86.0517 128.409 85.8857 128.42 85.7142V85.5205C128.42 85.1443 128.376 84.8179 128.287 84.5302C128.198 84.2424 128.071 84.0045 127.91 83.8109C127.749 83.6172 127.549 83.4679 127.328 83.3683C127.1 83.2687 126.851 83.2189 126.579 83.2189H125.042L125.037 83.2244Z" fill="white"/>
<path d="M134.955 88.3699C134.955 88.4142 134.983 88.4529 135.039 88.4861C135.094 88.5193 135.15 88.5359 135.205 88.5359C135.277 88.5359 135.383 88.5138 135.521 88.464V89.3548C135.238 89.4322 134.994 89.471 134.784 89.471C134.695 89.471 134.606 89.4544 134.523 89.4156C134.44 89.3824 134.362 89.3326 134.29 89.2773C134.218 89.222 134.157 89.1556 134.101 89.0781C134.046 89.0062 134.001 88.9287 133.963 88.8513C133.669 89.0505 133.397 89.2054 133.158 89.3105C132.914 89.4156 132.692 89.4654 132.487 89.4654C131.877 89.4654 131.416 89.3271 131.106 89.056C130.795 88.7794 130.634 88.4031 130.634 87.9162V87.7835C130.662 87.5124 130.729 87.28 130.834 87.0919C130.939 86.9037 131.089 86.7433 131.272 86.6216C131.455 86.4998 131.683 86.4003 131.949 86.3339C132.215 86.2675 132.515 86.2121 132.864 86.1789C133.086 86.1679 133.269 86.1568 133.402 86.1402C133.535 86.1236 133.641 86.1015 133.707 86.0794C133.774 86.0517 133.824 86.024 133.846 85.9908C133.868 85.9576 133.879 85.9189 133.879 85.8691V85.3048C133.863 85.2052 133.752 85.1166 133.552 85.0337C133.352 84.9507 133.081 84.9119 132.742 84.9119C132.204 84.9119 131.916 85.2107 131.877 85.8138H130.862L130.901 85.1996C130.945 85.006 131.028 84.8345 131.15 84.6796C131.272 84.5246 131.422 84.3918 131.594 84.2867C131.766 84.1761 131.966 84.0931 132.182 84.0377C132.398 83.9824 132.626 83.9492 132.864 83.9492C133.203 83.9492 133.508 83.9824 133.768 84.0488C134.029 84.1152 134.251 84.2037 134.429 84.3144C134.606 84.425 134.739 84.5468 134.833 84.6906C134.922 84.8289 134.967 84.9728 134.967 85.1222V88.381L134.955 88.3699ZM133.868 86.9037C133.718 86.948 133.569 86.9867 133.419 87.0199C133.269 87.0531 133.119 87.0753 132.964 87.0919H132.975C132.803 87.1251 132.642 87.1527 132.493 87.1859C132.343 87.2191 132.204 87.2578 132.088 87.3076C131.971 87.3574 131.877 87.4238 131.81 87.5013C131.744 87.5843 131.71 87.6894 131.71 87.8222V87.8499C131.71 88.0767 131.777 88.2427 131.905 88.3478C132.032 88.4529 132.204 88.5138 132.42 88.5359H132.476C132.653 88.5359 132.831 88.5083 132.997 88.4474C133.164 88.3865 133.314 88.3146 133.441 88.2261C133.569 88.1376 133.674 88.049 133.752 87.9494C133.829 87.8554 133.868 87.7724 133.868 87.7005V86.9037Z" fill="white"/>
<path d="M137.932 82.7565V84.0733H138.703V85.0582H137.932V88.328C137.932 88.4332 138.026 88.4885 138.221 88.4885C138.387 88.4885 138.548 88.4608 138.703 88.4055V89.3737C138.548 89.4235 138.409 89.4512 138.282 89.4623C138.159 89.4733 138.043 89.4733 137.927 89.4733H137.821C137.699 89.4733 137.583 89.4512 137.466 89.4014C137.35 89.3571 137.25 89.2908 137.161 89.2133C137.072 89.1358 137.006 89.0473 136.95 88.9422C136.895 88.8371 136.867 88.7319 136.867 88.6213V85.0526H136.196V84.0678H136.867V82.751H137.927L137.932 82.7565Z" fill="white"/>
<path d="M144.047 88.3699C144.047 88.4142 144.075 88.4529 144.13 88.4861C144.186 88.5193 144.241 88.5359 144.297 88.5359C144.369 88.5359 144.474 88.5138 144.613 88.464V89.3548C144.33 89.4322 144.086 89.471 143.875 89.471C143.786 89.471 143.698 89.4544 143.614 89.4156C143.531 89.3824 143.453 89.3326 143.381 89.2773C143.309 89.222 143.248 89.1556 143.187 89.0781C143.132 89.0062 143.087 88.9287 143.049 88.8513C142.755 89.0505 142.483 89.2054 142.244 89.3105C142 89.4156 141.778 89.4654 141.573 89.4654C140.963 89.4654 140.502 89.3271 140.192 89.056C139.881 88.7794 139.72 88.4031 139.72 87.9162V87.7835C139.748 87.5124 139.815 87.28 139.92 87.0919C140.025 86.9037 140.175 86.7433 140.358 86.6216C140.541 86.4998 140.769 86.4003 141.035 86.3339C141.301 86.2675 141.601 86.2121 141.95 86.1789C142.172 86.1679 142.355 86.1568 142.488 86.1402C142.621 86.1236 142.727 86.1015 142.793 86.0794C142.86 86.0517 142.91 86.024 142.932 85.9908C142.954 85.9576 142.965 85.9189 142.965 85.8691V85.3048C142.949 85.2052 142.838 85.1166 142.638 85.0337C142.438 84.9507 142.166 84.9119 141.828 84.9119C141.29 84.9119 141.002 85.2107 140.963 85.8138H139.948L139.986 85.1996C140.031 85.006 140.114 84.8345 140.236 84.6796C140.358 84.5246 140.508 84.3918 140.68 84.2867C140.852 84.1761 141.052 84.0931 141.268 84.0377C141.484 83.9824 141.712 83.9492 141.95 83.9492C142.289 83.9492 142.594 83.9824 142.854 84.0488C143.115 84.1152 143.337 84.2037 143.514 84.3144C143.692 84.425 143.825 84.5468 143.919 84.6906C144.008 84.8289 144.053 84.9728 144.053 85.1222V88.381L144.047 88.3699ZM142.96 86.9037C142.81 86.948 142.66 86.9867 142.51 87.0199C142.361 87.0531 142.211 87.0753 142.056 87.0919H142.067C141.895 87.1251 141.734 87.1527 141.584 87.1859C141.434 87.2191 141.296 87.2578 141.179 87.3076C141.063 87.3574 140.968 87.4238 140.902 87.5013C140.835 87.5843 140.802 87.6894 140.802 87.8222V87.8499C140.802 88.0767 140.868 88.2427 140.996 88.3478C141.124 88.4529 141.296 88.5138 141.512 88.5359H141.567C141.745 88.5359 141.917 88.5083 142.089 88.4474C142.255 88.3865 142.405 88.3146 142.533 88.2261C142.66 88.1376 142.766 88.049 142.843 87.9494C142.921 87.8554 142.96 87.7724 142.96 87.7005V86.9037Z" fill="white"/>
<path d="M149.648 83.1973H148.744V90.1852H149.648V83.1973Z" fill="#DEB341"/>
<path fill-rule="evenodd" clip-rule="evenodd" d="M168.206 82.9C168.594 84.3109 168.556 85.517 168.633 86.7121C168.644 86.8892 168.633 87.0662 168.65 87.2377C168.733 88.4716 168.85 88.5712 170.087 88.5712C170.541 88.5712 170.991 88.5712 171.446 88.5712C172.328 88.5712 172.505 88.3167 171.989 87.5919C171.59 87.0441 171.612 86.6291 172.061 86.1423C172.649 86.6513 172.733 87.3429 172.71 88.04C172.694 88.4716 172.838 88.621 173.26 88.5767C173.509 88.549 173.764 88.5767 174.014 88.5767C174.907 88.5767 175.085 88.3277 174.558 87.6029C174.164 87.0552 174.175 86.6402 174.624 86.1478C175.201 86.6291 175.295 87.2986 175.273 87.9681C175.257 88.466 175.406 88.5988 175.9 88.5878C176.948 88.5601 176.954 88.5878 176.815 87.5919C176.677 86.5462 176.616 85.4783 176.338 84.4769C176.166 83.8627 175.983 83.3316 176.344 82.7119C176.571 82.8226 176.604 83.1324 176.871 83.1877C177.492 83.3095 177.47 83.8185 177.265 84.1726C176.932 84.7369 177.126 85.257 177.187 85.8048C177.309 86.8726 177.581 87.9238 177.586 89.0083C177.586 89.4343 177.531 89.6224 177.026 89.6169C174.591 89.6003 172.15 89.6335 169.715 89.6335C168.661 89.6335 168.445 89.4675 168.273 88.4162C168.145 87.6029 168.112 86.773 168.051 85.9486C168.006 85.3732 167.951 84.8254 167.651 84.2943C167.352 83.7631 167.962 83.5086 168.206 82.9111V82.9ZM199.847 84.1394C200.485 85.1906 200.296 86.3359 200.396 87.4369C200.607 89.722 200.884 89.9046 203.164 89.4619C203.996 89.3015 204.651 89.2849 205.433 89.5062C206.376 89.7773 206.47 89.639 206.443 88.6818C206.42 87.9681 206.049 87.3982 205.71 86.8117C205.549 86.5351 205.361 86.6236 205.133 86.7343C204.568 87.0054 204.179 87.4535 203.802 87.9293C203.331 88.5214 202.188 88.8533 201.456 88.5435C200.801 88.2613 200.984 87.5697 200.895 87.022C200.873 86.9002 200.895 86.773 200.895 86.6457C200.818 85.4728 200.857 84.2888 200.441 83.1047C200.219 83.4588 199.653 83.8129 199.853 84.1394H199.847ZM205.86 88.5158C205.527 88.1009 205.599 87.6029 205.117 87.5255C204.923 87.4923 204.634 87.7634 204.706 87.957C204.856 88.3609 205.267 88.4273 205.86 88.5158ZM154.943 88.3941C155.148 89.141 155.792 89.4011 156.496 89.5173C156.768 89.5615 157.045 89.5892 157.317 89.5892C158.476 89.5947 159.63 89.5892 160.79 89.5892C162.448 89.5892 162.459 89.5892 162.376 87.9017C162.343 87.2212 162.321 86.5185 161.688 85.9763C161.422 86.4521 161.089 86.8339 161.605 87.3207C161.821 87.5255 161.832 87.863 161.86 88.1673C161.882 88.4328 161.86 88.5767 161.527 88.5767C159.991 88.5601 158.454 88.6265 156.923 88.5435C155.514 88.4716 155.087 87.7025 155.609 86.4244C155.642 86.3414 155.647 86.2419 155.664 86.1478C154.943 86.7509 154.704 87.531 154.943 88.3941ZM162.698 84.6871C162.897 84.9527 162.853 85.4064 162.892 85.7771C162.992 86.7453 162.964 87.7302 163.18 88.6873C163.308 89.2794 163.613 89.6224 164.268 89.5947C164.867 89.5726 165.471 89.5892 166.076 89.5892C167.089 89.5892 167.59 89.071 167.579 88.0345C167.568 87.3373 167.507 86.6457 166.919 86.1367C166.47 86.6291 166.453 87.0441 166.847 87.5919C167.368 88.3111 167.191 88.5656 166.303 88.5656C165.849 88.5656 165.399 88.5656 164.944 88.5656C163.707 88.5656 163.591 88.4605 163.508 87.2322C163.497 87.0552 163.508 86.8837 163.491 86.7066C163.413 85.5115 163.452 84.3054 163.086 82.972C162.637 83.575 162.176 83.9789 162.698 84.6871ZM195.204 91.9296C195.825 91.996 196.391 91.924 196.896 91.4925C198.15 90.4357 198.183 88.8091 197.806 87.4037C197.634 86.7619 196.957 86.69 196.508 87.188C195.714 88.0787 196.019 89.2462 197.134 89.5726C197.218 89.5947 197.345 89.5837 197.345 89.7607C196.424 91.0886 195.248 91.8355 193.484 91.2656C194.05 91.6529 194.605 91.8632 195.21 91.924L195.204 91.9296ZM197.018 87.8298C196.757 87.8408 196.652 87.9957 196.685 88.1783C196.741 88.466 196.985 88.5546 197.251 88.5767C197.379 88.5878 197.523 88.5988 197.484 88.4052C197.428 88.123 197.306 87.8851 197.012 87.8298H197.018ZM189.224 91.8245C190.777 92.3833 191.837 92.0513 192.847 90.729C193.457 89.9322 193.468 87.708 192.847 86.8781C192.724 86.7121 192.614 86.2916 192.336 86.5351C192.142 86.7066 191.937 87.0662 192.136 87.4093C192.236 87.5808 192.375 87.7302 192.475 87.9017C192.963 88.6984 192.941 89.2406 192.347 89.9544C191.46 91.0167 190.4 91.6695 188.93 91.2878C188.764 91.2435 188.553 91.1163 188.303 91.3486C188.531 91.6972 188.908 91.7083 189.224 91.8245ZM185.585 88.6431C185.097 88.8533 184.775 88.549 184.437 88.3056C184.315 88.2171 184.243 88.0621 184.398 87.9238C184.742 87.614 185.119 87.5642 185.491 87.8408C185.824 88.0843 185.901 87.863 186.012 87.6251C186.24 87.1271 185.907 86.9113 185.546 86.7896C185.092 86.6402 184.648 86.7398 184.315 87.1271C183.888 87.6195 183.483 88.1396 183.494 88.8367C183.494 88.9474 183.655 89.1078 183.777 89.1576C184.199 89.3292 184.293 89.5671 184.032 89.9488C183.966 90.0484 183.888 90.1701 184.021 90.2808C184.199 90.4302 184.287 90.2531 184.393 90.1701C184.87 89.7884 185.391 89.4841 185.985 89.3513C186.567 89.224 186.817 88.8976 186.783 88.1949C186.334 88.3664 185.957 88.4882 185.591 88.6486L185.585 88.6431ZM188.486 83.1379C187.971 83.907 187.948 83.9568 188.02 84.4935C188.237 86.1976 188.475 87.9017 188.437 89.7828C189.241 88.7482 189.224 85.423 188.492 83.1324L188.486 83.1379ZM178.757 83.1379C177.986 85.3179 179.034 87.4923 178.873 89.6667C179.844 87.4867 179.012 85.3123 178.757 83.1379ZM158.571 85.0523L157.611 84.6705L157.295 85.4673L158.255 85.849L158.571 85.0523ZM159.841 84.6373L158.881 84.2556L158.565 85.0523L159.525 85.4341L159.841 84.6373ZM167.136 84.5654L166.176 84.1836L165.86 84.9804L166.819 85.3621L167.136 84.5654ZM171.407 91.0001L170.447 90.6183L170.131 91.415L171.091 91.7968L171.407 91.0001ZM172.677 90.574L171.717 90.1923L171.401 90.989L172.361 91.3708L172.677 90.574ZM174.68 90.7622L173.72 90.3804L173.404 91.1771L174.363 91.5589L174.68 90.7622Z" fill="white"/>
</svg>
